<svg width="316" height="72" viewBox="0 0 316 72" fill="none" xmlns="http://www.w3.org/2000/svg">
<g clip-path="url(#clip0_156_693)">
<path d="M303.572 47.4219C308.521 52.3581 308.521 60.3613 303.572 65.2975C298.623 70.2338 290.598 70.2338 285.649 65.2975C280.7 60.3613 280.7 52.3581 285.649 47.4219C290.598 42.4857 298.623 42.4857 303.572 47.4219ZM288.442 50.2075C291.206 47.4507 295.035 46.4081 298.608 47.0727C294.909 45.4903 290.461 46.1976 287.441 49.2094C284.421 52.2212 283.712 56.6577 285.299 60.3468C284.632 56.7834 285.678 52.9643 288.442 50.2075Z" fill="#CCEBF0"/>
<path d="M278.818 31.0103C281.292 33.4784 281.292 37.48 278.818 39.9481C276.343 42.4162 272.331 42.4162 269.856 39.9481C267.381 37.48 267.381 33.4784 269.856 31.0103C272.331 28.5421 276.343 28.5421 278.818 31.0103ZM271.253 32.4031C272.635 31.0247 274.549 30.5033 276.336 30.8356C274.486 30.0445 272.262 30.3981 270.752 31.904C269.242 33.41 268.888 35.6281 269.681 37.4727C269.348 35.691 269.871 33.7814 271.253 32.4031Z" fill="#CCEBF0"/>
<path d="M288.255 34.6779C289.889 36.3071 289.889 38.9485 288.255 40.5776C286.622 42.2068 283.973 42.2068 282.34 40.5776C280.706 38.9485 280.706 36.3071 282.34 34.6779C283.973 33.0488 286.622 33.0488 288.255 34.6779ZM283.262 35.5973C284.174 34.6874 285.438 34.3433 286.617 34.5627C285.396 34.0404 283.928 34.2739 282.931 35.2679C281.935 36.2619 281.701 37.7261 282.224 38.9437C282.005 37.7676 282.35 36.5071 283.262 35.5973Z" fill="#CCEBF0"/>
<path d="M307.678 32.5295C309.311 34.1586 309.311 36.8 307.678 38.4292C306.044 40.0583 303.396 40.0583 301.762 38.4292C300.129 36.8 300.129 34.1586 301.762 32.5295C303.396 30.9003 306.044 30.9003 307.678 32.5295ZM302.684 33.4488C303.596 32.539 304.86 32.1949 306.039 32.4142C304.819 31.892 303.35 32.1254 302.354 33.1194C301.357 34.1135 301.123 35.5777 301.647 36.7952C301.427 35.6192 301.772 34.3587 302.684 33.4488Z" fill="#CCEBF0"/>
<path d="M284.691 19.4439C285.829 20.5789 285.829 22.4189 284.691 23.5538C283.553 24.6888 281.708 24.6888 280.57 23.5538C279.433 22.4189 279.433 20.5789 280.57 19.4439C281.708 18.3091 283.553 18.3091 284.691 19.4439ZM281.213 20.0844C281.848 19.4506 282.729 19.2108 283.55 19.3636C282.7 18.9998 281.677 19.1625 280.983 19.8549C280.288 20.5474 280.125 21.5674 280.49 22.4156C280.337 21.5963 280.577 20.7182 281.213 20.0844Z" fill="#CCEBF0"/>
<path d="M296.671 16.5377C297.809 17.6726 297.809 19.5127 296.671 20.6476C295.533 21.7826 293.688 21.7826 292.55 20.6476C291.412 19.5127 291.412 17.6726 292.55 16.5377C293.688 15.4028 295.533 15.4028 296.671 16.5377ZM293.192 17.1782C293.828 16.5444 294.708 16.3046 295.529 16.4574C294.679 16.0936 293.656 16.2562 292.962 16.9487C292.268 17.6412 292.105 18.6612 292.469 19.5094C292.316 18.6901 292.557 17.812 293.192 17.1782Z" fill="#CCEBF0"/>
<path d="M286.927 9.52279C287.626 10.2198 287.626 11.35 286.927 12.047C286.229 12.744 285.095 12.744 284.397 12.047C283.698 11.35 283.698 10.2198 284.397 9.52279C285.095 8.82574 286.229 8.82574 286.927 9.52279ZM284.791 9.91615C285.181 9.52684 285.722 9.37962 286.227 9.47346C285.704 9.25003 285.076 9.34989 284.65 9.77519C284.223 10.2005 284.123 10.8269 284.347 11.3479C284.253 10.8447 284.401 10.3054 284.791 9.91615Z" fill="#CCEBF0"/>
<path d="M315.147 48.8014C316.284 49.9363 316.284 51.7763 315.147 52.9113C314.009 54.0462 312.164 54.0462 311.026 52.9113C309.888 51.7763 309.888 49.9363 311.026 48.8014C312.164 47.6665 314.009 47.6665 315.147 48.8014ZM311.668 49.4419C312.303 48.808 313.184 48.5683 314.005 48.7211C313.155 48.3573 312.132 48.5199 311.438 49.2124C310.744 49.9048 310.58 50.9248 310.945 51.773C310.792 50.9538 311.032 50.0757 311.668 49.4419Z" fill="#CCEBF0"/>
</g>
<path d="M64.1246 32C54.0899 32 45.9543 40.3447 45.9543 50.6381C45.9543 60.9316 54.0899 69.2754 64.1246 69.2754C74.1592 69.2754 82.2948 60.9316 82.2948 50.6381C82.2948 40.3447 74.1601 32 64.1246 32ZM64.1254 51.2272C62.4834 51.2272 61.1544 49.8616 61.1544 48.1774C61.1544 46.494 62.4834 45.1292 64.1254 45.1292C65.7665 45.1292 67.0972 46.494 67.0972 48.1774C67.0972 49.8616 65.7665 51.2272 64.1254 51.2272Z" fill="#22555E"/>
<path d="M49.1777 51.9809C48.643 51.9809 48.2095 51.5371 48.2095 50.9887C48.2095 41.7945 55.5029 34.3135 64.4668 34.3135C65.0023 34.3135 65.4342 34.7582 65.4342 35.3057C65.4342 35.8541 65.0023 36.298 64.4668 36.298C56.5707 36.298 50.1451 42.8888 50.1451 50.9887C50.1451 51.5371 49.7115 51.9809 49.1777 51.9809Z" fill="white"/>
<path d="M64.1254 54.8005C63.7913 54.8005 63.5203 54.5226 63.5203 54.1799C63.5203 53.8372 63.7913 53.5594 64.1254 53.5594C67.0179 53.5594 69.3717 51.1451 69.3717 48.1774C69.3717 47.8356 69.6434 47.5576 69.9775 47.5576C70.3108 47.5576 70.5809 47.8356 70.5809 48.1774C70.5809 51.8295 67.6844 54.8005 64.1254 54.8005Z" fill="white"/>
<path d="M25.6533 32.4355C17.1352 32.4355 11 37.2118 11 47.2424C11 67.5663 16.895 68.8391 21.3275 68.8391C28.2239 68.8391 26.9346 63.5849 28.3913 62.0907C29.5649 60.8868 43.9983 61.3971 43.9983 47.5983C43.9983 36.3249 34.1722 32.4355 25.6533 32.4355ZM28.4342 49.4484C26.954 49.4484 25.7536 48.218 25.7536 46.698C25.7536 45.1807 26.954 43.9486 28.4342 43.9486C29.9144 43.9486 31.1147 45.1807 31.1147 46.698C31.1147 48.218 29.9144 49.4484 28.4342 49.4484Z" fill="#22555E"/>
<path d="M14.2233 48.586C13.6887 48.586 13.255 48.1422 13.255 47.5946C13.255 36.001 22.1663 34.749 25.997 34.749C26.5301 34.749 26.9644 35.1938 26.9644 35.7413C26.9644 36.288 26.5301 36.7335 25.997 36.7335C21.0662 36.7335 15.1899 38.6176 15.1899 47.5945C15.1899 48.1421 14.7563 48.586 14.2233 48.586Z" fill="white"/>
<path d="M28.4342 53.0214C28.1009 53.0214 27.8291 52.7443 27.8291 52.4008C27.8291 52.0582 28.1009 51.781 28.4342 51.781C31.1665 51.781 33.39 49.5012 33.39 46.6978C33.39 46.3551 33.6602 46.0781 33.9943 46.0781C34.3292 46.0781 34.5993 46.3552 34.5993 46.6978C34.5993 50.1848 31.8338 53.0214 28.4342 53.0214Z" fill="white"/>
<path d="M167.816 70.7497C171.241 70.7497 174.184 67.9935 174.184 63.1831C174.184 60.825 173.864 59.191 173.864 57.3274C173.864 56.3206 174.505 55.5901 175.517 55.5901C176.125 55.5901 180.446 55.9074 180.446 50.2385C180.446 46.7719 177.869 43.0693 167.816 43.0693C157.764 43.0693 155.186 46.7719 155.186 50.2385C155.186 55.9074 159.142 55.5901 160.115 55.5901C161.126 55.5901 161.769 56.3206 161.769 57.3274C161.769 59.191 161.449 60.825 161.449 63.1831C161.449 67.9935 164.391 70.7497 167.816 70.7497Z" fill="#22555E"/>
<path d="M157.637 51.2607C157.23 51.2607 156.901 50.9232 156.901 50.5062C156.901 46.8447 160.87 44.8291 168.077 44.8291C168.483 44.8291 168.813 45.1666 168.813 45.5836C168.813 46 168.483 46.3375 168.077 46.3375C165.159 46.3375 158.372 46.7431 158.372 50.5062C158.372 50.9232 158.043 51.2607 157.637 51.2607Z" fill="white"/>
<path d="M163.899 64.2052C163.492 64.2052 163.163 63.8676 163.163 63.4506C163.163 62.2678 163.249 61.2692 163.332 60.3039C163.407 59.4333 163.483 58.5369 163.483 57.595C163.483 57.178 163.813 56.8398 164.219 56.8398C164.625 56.8398 164.955 57.178 164.955 57.595C164.955 58.6019 164.875 59.533 164.798 60.4326C164.717 61.3688 164.634 62.3334 164.634 63.4506C164.634 63.8676 164.305 64.2052 163.899 64.2052Z" fill="white"/>
<path d="M211.164 71.1208C216.687 71.1208 225.143 62.6104 225.143 51.6719C225.143 46.0472 222.515 43.4404 218.859 43.4404C213.221 43.4404 213.945 51.1117 211.164 51.1117C208.384 51.1117 209.108 43.4404 203.471 43.4404C199.815 43.4404 197.186 46.0472 197.186 51.6719C197.186 62.6104 205.642 71.1208 211.164 71.1208Z" fill="#22555E"/>
<path d="M199.637 52.6948C199.231 52.6948 198.902 52.3567 198.902 51.9397C198.902 46.3691 201.529 45.2002 203.732 45.2002C204.138 45.2002 204.468 45.5377 204.468 45.9547C204.468 46.3711 204.138 46.7085 203.732 46.7085C202.9 46.7085 200.373 46.7085 200.373 51.9397C200.373 52.3567 200.044 52.6948 199.637 52.6948Z" fill="white"/>
<path d="M211.425 54.3811C211.019 54.3811 210.69 54.0423 210.69 53.6259C210.69 53.2089 211.019 52.8708 211.425 52.8708C213.527 52.8708 214.402 50.7978 215.105 49.1323C216.136 46.6846 216.922 45.2002 219.119 45.2002C219.526 45.2002 219.855 45.5377 219.855 45.9547C219.855 46.3711 219.526 46.7085 219.119 46.7085C217.963 46.7085 217.515 47.217 216.455 49.7316C215.674 51.5832 214.495 54.3811 211.425 54.3811Z" fill="white"/>
<path d="M282.34 48.3223C284.411 48.3223 284.34 43.4395 289.747 43.4395C292.773 43.4395 295.494 46.3256 295.494 49.2383C295.494 52.9257 293.792 54.4303 292.121 56.1443C290.304 58.0079 288.918 60.0948 288.918 65.03C288.918 68.1036 286.338 71.1204 282.34 71.1204C278.343 71.1204 275.764 68.1036 275.764 65.03C275.764 60.0948 274.377 58.0079 272.56 56.1443C270.889 54.4303 269.186 52.9257 269.186 49.2383C269.186 46.3256 271.908 43.4395 274.934 43.4395C280.342 43.4395 280.27 48.3223 282.34 48.3223Z" fill="#22555E"/>
<path d="M282.602 51.5911C282.195 51.5911 281.866 51.253 281.866 50.8353C281.866 50.4189 282.195 50.0814 282.602 50.0814C284.158 50.0814 284.956 48.8903 285.66 47.84C286.572 46.4817 287.432 45.1992 290.008 45.1992C290.415 45.1992 290.744 45.5367 290.744 45.9537C290.744 46.3701 290.415 46.7076 290.008 46.7076C288.206 46.7076 287.705 47.4558 286.873 48.6954C286.1 49.8486 284.932 51.5911 282.602 51.5911Z" fill="white"/>
<path d="M271.637 50.2599C271.23 50.2599 270.901 49.9231 270.901 49.5048C270.901 47.3309 273.028 45.1992 275.194 45.1992C275.601 45.1992 275.93 45.5367 275.93 45.9537C275.93 46.3701 275.601 46.7076 275.194 46.7076C273.848 46.7076 272.373 48.1718 272.373 49.5048C272.373 49.9231 272.044 50.2599 271.637 50.2599Z" fill="white"/>
<path d="M128.16 71.5524C121.866 71.5524 116 68.1924 116 63.0187C116 60.096 117.801 58.6866 119.736 58.6866C120.862 58.6866 121.003 59.2355 121.95 59.2355C122.397 59.2355 122.691 58.9516 122.691 58.5541C122.691 56.7852 117.911 56.307 117.911 51.614C117.911 47.933 122.14 43.8721 128.182 43.8721C134.225 43.8721 139.398 47.8932 139.398 52.0468C139.398 53.9962 137.51 54.8983 136.641 54.8983C135.047 54.8983 135.292 54.4876 134.52 54.4876C134.029 54.4876 133.765 54.8346 133.765 55.321C133.765 57.0167 139.943 57.0457 139.943 63.4528C139.943 67.819 135.147 71.5524 128.16 71.5524Z" fill="#22555E"/>
<path d="M120.361 52.6369C119.954 52.6369 119.625 52.2988 119.625 51.8824C119.625 48.9262 123.247 45.6318 128.443 45.6318C128.849 45.6318 129.179 45.9693 129.179 46.3863C129.179 46.8027 128.849 47.1402 128.443 47.1402C123.958 47.1402 121.096 49.9482 121.096 51.8824C121.096 52.2988 120.767 52.6369 120.361 52.6369Z" fill="white"/>
<path d="M118.45 64.0412C118.044 64.0412 117.715 63.7025 117.715 63.2867C117.715 61.191 118.893 60.4453 119.997 60.4453C120.403 60.4453 120.732 60.7822 120.732 61.1998C120.732 61.6155 120.403 61.9543 119.997 61.9543C119.754 61.9543 119.186 61.9543 119.186 63.2867C119.186 63.7025 118.857 64.0412 118.45 64.0412Z" fill="white"/>
<path d="M121.95 61.9527C121.697 61.9527 121.49 61.742 121.49 61.4814C121.49 61.2209 121.697 61.0095 121.95 61.0095C123.335 61.0095 124.42 59.9308 124.42 58.5543C124.42 58.2937 124.627 58.083 124.88 58.083C125.134 58.083 125.34 58.2937 125.34 58.5543C125.34 60.4601 123.851 61.9527 121.95 61.9527Z" fill="white"/>
<path d="M147.492 71.5524C151.146 71.5524 154.799 69.0062 154.799 55.9385C154.799 48.4786 152.664 43.8721 147.492 43.8721C142.321 43.8721 140.186 48.4786 140.186 55.9385C140.186 69.0062 143.839 71.5524 147.492 71.5524Z" fill="#22555E"/>
<path d="M142.637 56.9605C142.23 56.9605 141.901 56.623 141.901 56.206C141.901 49.0905 143.815 45.6309 147.754 45.6309C148.16 45.6309 148.489 45.969 148.489 46.386C148.489 46.8024 148.16 47.1399 147.754 47.1399C146.67 47.1399 143.372 47.1399 143.372 56.206C143.372 56.623 143.043 56.9605 142.637 56.9605Z" fill="white"/>
<path d="M98.6276 32.4355C90.1094 32.4355 83.9743 37.2118 83.9743 47.2424C83.9743 67.5663 89.8693 68.8391 94.3018 68.8391C101.198 68.8391 99.9089 63.5849 101.366 62.0907C102.539 60.8868 116.973 61.3971 116.973 47.5983C116.973 36.325 107.146 32.4355 98.6276 32.4355ZM101.408 49.4484C99.9283 49.4484 98.7279 48.218 98.7279 46.698C98.7279 45.1807 99.9283 43.9486 101.408 43.9486C102.889 43.9486 104.089 45.1807 104.089 46.698C104.089 48.218 102.889 49.4484 101.408 49.4484Z" fill="#22555E"/>
<path d="M87.1976 48.5859C86.6629 48.5859 86.2293 48.1421 86.2293 47.5945C86.2293 36.0009 95.1405 34.749 98.9713 34.749C99.5044 34.749 99.9387 35.1938 99.9387 35.7413C99.9387 36.288 99.5044 36.7335 98.9713 36.7335C94.0405 36.7335 88.1642 38.6176 88.1642 47.5945C88.1642 48.1421 87.7305 48.5859 87.1976 48.5859Z" fill="white"/>
<path d="M101.408 53.0214C101.075 53.0214 100.803 52.7443 100.803 52.4008C100.803 52.0582 101.075 51.781 101.408 51.781C104.141 51.781 106.364 49.5012 106.364 46.6978C106.364 46.3551 106.635 46.0781 106.969 46.0781C107.303 46.0781 107.574 46.3552 107.574 46.6978C107.574 50.1848 104.808 53.0214 101.408 53.0214Z" fill="white"/>
<path d="M188.493 71.8717C192.146 71.8717 195.799 69.3255 195.799 56.2579C195.799 48.7979 193.664 44.1914 188.493 44.1914C183.321 44.1914 181.186 48.7979 181.186 56.2579C181.186 69.3255 184.839 71.8717 188.493 71.8717Z" fill="#22555E"/>
<path d="M183.637 57.2798C183.23 57.2798 182.901 56.9424 182.901 56.5254C182.901 49.4099 184.815 45.9502 188.754 45.9502C189.16 45.9502 189.489 46.2884 189.489 46.7054C189.489 47.1217 189.16 47.4593 188.754 47.4593C187.67 47.4593 184.372 47.4593 184.372 56.5254C184.372 56.9424 184.043 57.2798 183.637 57.2798Z" fill="white"/>
<path d="M233.492 70.6803C237.146 70.6803 240.799 68.1341 240.799 55.0665C240.799 47.6065 238.664 43 233.492 43C228.321 43 226.186 47.6065 226.186 55.0665C226.186 68.1341 229.838 70.6803 233.492 70.6803Z" fill="#22555E"/>
<path d="M228.637 56.0884C228.23 56.0884 227.901 55.751 227.901 55.334C227.901 48.2185 229.815 44.7588 233.754 44.7588C234.16 44.7588 234.489 45.097 234.489 45.514C234.489 45.9303 234.16 46.2679 233.754 46.2679C232.67 46.2679 229.372 46.2678 229.372 55.334C229.372 55.751 229.043 56.0884 228.637 56.0884Z" fill="white"/>
<path d="M254.816 71.1208C258.241 71.1208 261.184 68.3645 261.184 63.5542C261.184 61.1961 260.864 59.5621 260.864 57.6985C260.864 56.6917 261.505 55.9612 262.517 55.9612C263.125 55.9612 267.446 56.2785 267.446 50.6096C267.446 47.143 264.869 43.4404 254.816 43.4404C244.764 43.4404 242.186 47.143 242.186 50.6096C242.186 56.2785 246.142 55.9612 247.115 55.9612C248.126 55.9612 248.769 56.6917 248.769 57.6985C248.769 59.5621 248.449 61.1961 248.449 63.5542C248.449 68.3645 251.391 71.1208 254.816 71.1208Z" fill="#22555E"/>
<path d="M244.637 51.6318C244.23 51.6318 243.901 51.2943 243.901 50.8773C243.901 47.2158 247.87 45.2002 255.077 45.2002C255.483 45.2002 255.813 45.5377 255.813 45.9547C255.813 46.3711 255.483 46.7085 255.077 46.7085C252.159 46.7085 245.372 47.1142 245.372 50.8773C245.372 51.2943 245.043 51.6318 244.637 51.6318Z" fill="white"/>
<path d="M250.899 64.5763C250.492 64.5763 250.164 64.2387 250.164 63.8217C250.164 62.6389 250.249 61.6403 250.332 60.675C250.407 59.8044 250.483 58.908 250.483 57.9661C250.483 57.5491 250.813 57.2109 251.219 57.2109C251.625 57.2109 251.955 57.5491 251.955 57.9661C251.955 58.973 251.875 59.9041 251.798 60.8037C251.717 61.7399 251.634 62.7045 251.634 63.8217C251.634 64.2387 251.305 64.5763 250.899 64.5763Z" fill="white"/>
<g clip-path="url(#clip1_156_693)">
<path d="M113.427 30.6775C113.427 30.6775 115.144 22.5794 119.014 20.0955C122.885 17.6117 127.615 20.1026 126.934 23.9024C126.088 28.6219 119.85 24.8286 113.427 30.6775Z" fill="#CCEBF0"/>
<path d="M111.275 32.4764C111.275 32.4764 106.571 25.5273 108.438 19.9573C110.305 14.3873 115.125 14.8345 115.478 17.154C115.83 19.4735 108.27 22.2004 111.275 32.4764Z" fill="#CCEBF0"/>
<path d="M109.68 20.9388C110.934 18.2175 113.249 18.4523 113.165 16.9604C113.165 16.9576 113.165 16.9548 113.164 16.952C113.143 16.6057 112.795 16.3707 112.458 16.4655C111.305 16.7897 110.012 17.8915 109.232 20.2192C108.441 22.5803 108.954 25.2622 109.741 27.4717C109.741 27.4717 108.425 23.6602 109.68 20.9388Z" fill="#EAF6F8"/>
<path d="M121.697 13.147C123.353 12.4663 124.058 11.7204 123.636 11.172C123.45 10.9305 123.117 10.8499 122.829 10.9533C121.794 11.3246 120.663 12.5022 119.849 14.1145C119.454 14.8961 119.143 15.5782 118.899 16.1544C118.961 16.0104 119.9 13.885 121.697 13.147Z" fill="#EAF6F8"/>
<path d="M118.664 23.4871C120.17 22.7511 122.001 22.5977 122.941 22.1403C123.551 21.8432 123.893 21.3584 123.79 20.8145C123.703 20.353 123.303 20.0113 122.832 19.9576C122.66 19.9379 122.485 19.9277 122.309 19.9277C121.331 19.9277 120.349 20.2265 119.469 20.7915C117.611 21.9837 116.267 24.6832 115.408 26.9856C115.926 25.8493 116.905 24.3471 118.664 23.4871Z" fill="#EAF6F8"/>
</g>
<g clip-path="url(#clip2_156_693)">
<path d="M17.8593 27.2948C17.8593 27.2948 15.6 16.6053 10.5075 13.3266C5.41499 10.0479 -0.809771 13.336 0.0868664 18.3517C1.20053 24.5815 9.4085 19.5744 17.8593 27.2948Z" fill="#CCEBF0"/>
<path d="M20.6913 29.669C20.6913 29.669 26.8797 20.4962 24.4237 13.1438C21.9677 5.79133 15.6244 6.38176 15.1608 9.44347C14.6973 12.5052 24.6448 16.1046 20.6913 29.669Z" fill="#CCEBF0"/>
<path d="M22.7897 14.4386C21.1388 10.8464 18.0939 11.1564 18.204 9.1871C18.2042 9.18339 18.2044 9.17969 18.2047 9.176C18.2332 8.7188 18.6904 8.40867 19.1337 8.53374C20.6507 8.96177 22.3528 10.4161 23.3792 13.4887C24.4203 16.6054 23.7443 20.1455 22.7091 23.062C22.7091 23.062 24.4405 18.0308 22.7897 14.4386Z" fill="#EAF6F8"/>
<path d="M6.97827 4.1551C4.79844 3.25659 3.87125 2.27203 4.42614 1.54815C4.67055 1.22929 5.10874 1.12291 5.48791 1.25939C6.84946 1.7495 8.33776 3.30398 9.40924 5.43219C9.92868 6.46387 10.3384 7.36427 10.6589 8.1249C10.5775 7.93481 9.34165 5.12924 6.97827 4.1551Z" fill="#EAF6F8"/>
<path d="M10.9678 17.8029C8.98628 16.8313 6.57766 16.6288 5.34116 16.025C4.5382 15.6329 4.08842 14.993 4.22368 14.275C4.33844 13.6659 4.86477 13.2148 5.48408 13.1439C5.71054 13.1179 5.94051 13.1045 6.17277 13.1045C7.45868 13.1045 8.7507 13.4988 9.9092 14.2447C12.3534 15.8183 14.122 19.3817 15.2526 22.4209C14.5714 20.9209 13.2829 18.9381 10.9678 17.8029Z" fill="#EAF6F8"/>
</g>
<defs>
<clipPath id="clip0_156_693">
<rect width="48" height="60" fill="white" transform="translate(268 9)"/>
</clipPath>
<clipPath id="clip1_156_693">
<rect width="19" height="25" fill="white" transform="translate(108 10)"/>
</clipPath>
<clipPath id="clip2_156_693">
<rect width="25" height="33" fill="white" transform="matrix(-1 0 0 1 25 0)"/>
</clipPath>
</defs>
</svg>
