<svg width="77" height="64" viewBox="0 0 77 64" fill="none" xmlns="http://www.w3.org/2000/svg">
<g clip-path="url(#clip0_1365_87)">
<g clip-path="url(#clip1_1365_87)">
<mask id="mask0_1365_87" style="mask-type:luminance" maskUnits="userSpaceOnUse" x="-293" y="-172" width="397" height="278">
<path d="M103.743 -171.465H-292.094V105.128H103.743V-171.465Z" fill="white"/>
</mask>
<g mask="url(#mask0_1365_87)">
<path d="M61.3531 18.2023C59.4658 20.9502 56.7439 24.2278 53.5914 27.0222C47.6954 32.2458 41.285 33.8056 35.8761 34.49C37.8983 33.7837 40.0555 32.7476 42.3598 31.2839C52.722 24.7083 56.3005 17.1787 57.3773 11.5536V11.483C57.444 8.02605 56.8238 5.85708 56.3856 4.76562C52.3337 11.1987 45.1329 21.9961 33.0776 27.2081C24.8626 30.7598 17.4169 27.1332 15.5851 24.3551C15.5395 24.3407 15.4934 24.3282 15.4492 24.3147C19.1354 34.8868 30.0741 41.6293 41.6268 39.7902C46.7762 38.9687 51.2565 36.5535 54.6662 33.1518C54.6714 33.0923 54.6761 33.0329 54.6803 32.9711C49.1463 35.9123 43.8865 37.2653 39.3808 37.7532C43.3392 36.9879 47.7254 35.3268 52.3619 32.3522C55.0625 30.6181 57.396 28.5843 59.4154 26.3986C60.5687 23.9123 61.2792 21.2081 61.4889 18.3965C61.4429 18.331 61.3977 18.2655 61.3531 18.2023Z" fill="white"/>
<path d="M28.6615 6.25391C28.1325 6.31989 27.5782 6.39888 27.0257 6.46022C26.9477 6.46719 26.8419 6.46161 26.8043 6.48158C26.7305 6.52201 26.682 6.71995 26.6444 6.8166C26.5057 7.16973 26.3952 7.52983 26.3303 7.90434C26.1667 7.49452 26.0581 6.9625 26.0158 6.55593C25.6561 6.58195 25.3002 6.59961 24.948 6.61587C25.2052 6.2395 25.5832 5.9189 25.974 5.60898C26.0261 5.05931 26.1112 4.49523 26.3393 4.01386C26.3473 4.00224 26.3628 3.94973 26.3919 3.96227C26.3995 4.29078 26.5664 4.78192 26.7521 5.07511C27.1964 4.82885 27.6506 4.59049 28.204 4.39859C27.8401 4.79121 27.5138 5.20056 27.2453 5.63872C27.6454 5.9965 28.1377 6.15541 28.6676 6.23997C28.6841 6.23765 28.6723 6.2502 28.6615 6.25391ZM30.7989 7.35698C31.3138 7.38951 31.8587 7.41414 32.3768 7.36442C32.4939 6.96483 32.5654 6.54711 32.6081 6.16099C32.8155 6.53828 33.0073 6.91418 33.1705 7.29333C33.6411 7.24779 34.1085 7.15673 34.5768 7.04567C34.2317 7.41739 33.8522 7.73707 33.4968 8.0377C33.6082 8.38107 33.7427 8.72444 33.7935 9.06828C33.4418 8.94282 33.0938 8.7788 32.745 8.59898C32.358 8.85593 31.9757 9.07339 31.5921 9.22579C31.7759 8.8945 31.9414 8.55996 32.0806 8.22588C31.641 7.96754 31.2 7.67481 30.7618 7.3621C30.766 7.34444 30.7867 7.3593 30.7989 7.35698ZM19.5302 24.0387C19.6905 24.1107 19.8476 24.1855 20.0178 24.2506C20.779 17.2921 33.0788 11.1243 39.31 9.53803C39.2597 8.46981 39.161 7.22735 38.8888 5.97373C38.8291 5.94399 38.7722 5.90171 38.7087 5.87708C38.5799 6.26506 38.435 6.6484 38.1459 6.99968C38.263 6.60984 38.2164 6.13079 38.1116 5.67171C37.7918 5.56996 37.4223 5.49421 37.0903 5.44821C37.0452 5.44078 36.9681 5.45425 36.9681 5.41848C37.2761 5.30231 37.6668 5.08347 37.8967 4.85069C37.7528 4.42135 37.5704 3.98504 37.4025 3.55014C37.7086 3.7885 37.9987 4.07705 38.2827 4.40045C38.3165 4.34469 38.3414 4.28938 38.372 4.2327C38.0382 3.36427 37.5967 2.5228 36.968 1.77147C36.7767 1.60698 36.5806 1.46527 36.3841 1.32727C36.1669 1.30915 35.9393 1.31333 35.7136 1.33284C35.5603 1.6344 35.4226 1.98893 35.321 2.30489C35.3088 2.35367 35.3088 2.42894 35.2745 2.42429C35.2058 2.10601 35.0535 1.69062 34.8607 1.43321C34.4093 1.51963 33.9462 1.6358 33.4854 1.74453C33.7723 1.47689 34.1084 1.22738 34.4775 0.9918C34.1484 0.710689 33.7628 0.569896 33.3251 0.556421C33.8545 0.463027 34.3524 0.453262 34.8278 0.499262C33.24 -0.0903745 31.5728 -0.0294956 30 0.364525C29.9173 0.469999 29.8284 0.567576 29.7626 0.691172C30.1322 0.738566 30.4773 0.808257 30.7885 0.916519C30.3738 1.02478 29.954 1.12189 29.5543 1.2427C29.4584 1.55169 29.4377 1.97963 29.4626 2.28676C29.4354 2.30489 29.417 2.23519 29.3935 2.2036C29.2261 1.97174 29.0225 1.72175 28.8133 1.52382C28.4061 1.69388 28.0051 1.92388 27.7385 2.22915C27.9073 1.80818 28.1546 1.48246 28.4132 1.16929C28.3272 1.10145 28.2223 1.05033 28.1207 0.994111C27.2166 1.37001 26.3712 1.82398 25.6269 2.27933C24.8243 2.8936 23.9935 3.57801 23.1627 4.30472C22.772 4.95569 22.323 5.74141 22.0917 6.30085C20.8843 9.2416 22.6846 10.5129 23.2633 10.8339C23.9837 11.2312 24.8713 11.3878 25.9062 11.3028C26.6223 11.2437 27.4159 11.0272 27.8485 10.8516C27.8607 10.8465 29.2327 10.353 29.3935 10.3279C28.219 11.9119 25.1257 13.9824 22.3728 13.7463C19.8663 13.5317 18.3326 11.4863 18.3505 9.70809C18.3509 9.54918 18.3871 9.394 18.4121 9.23648C18.4121 9.23648 11.4074 18.2525 19.5302 24.0387Z" fill="white"/>
</g>
<path d="M3.74152 52.6426L5.59637 49.9453H7.0135L4.37252 53.6857V56.2092H3.09552V53.6857L0.453125 49.9453H1.87069L3.72602 52.6426H3.74152Z" fill="white"/>
<mask id="mask1_1365_87" style="mask-type:luminance" maskUnits="userSpaceOnUse" x="-293" y="-172" width="397" height="278">
<path d="M103.743 -171.465H-292.094V105.128H103.743V-171.465Z" fill="white"/>
</mask>
<g mask="url(#mask1_1365_87)">
<path d="M13.4922 53.0769C13.4922 52.6969 13.44 52.3632 13.3371 52.0779C13.2317 51.7922 13.0879 51.5538 12.9036 51.3638C12.7197 51.1742 12.5006 51.0316 12.2472 50.9372C11.9938 50.8438 11.7154 50.7974 11.4136 50.7974C11.1108 50.7974 10.8334 50.8438 10.5795 50.9372C10.3265 51.0316 10.1069 51.1742 9.92311 51.3638C9.7388 51.5538 9.59491 51.7922 9.49006 52.0779C9.38616 52.3632 9.33395 52.6969 9.33395 53.0769C9.33395 53.4584 9.38616 53.7906 9.49006 54.0778C9.59491 54.3626 9.7388 54.5996 9.92311 54.7892C10.1069 54.9773 10.3265 55.1195 10.5795 55.2152C10.8334 55.3091 11.1108 55.3579 11.4136 55.3579C11.7154 55.3579 11.9938 55.3091 12.2472 55.2152C12.5006 55.1195 12.7197 54.9773 12.9036 54.7892C13.0879 54.5996 13.2317 54.3626 13.3371 54.0778C13.44 53.7906 13.4922 53.4584 13.4922 53.0769ZM14.8111 53.0769C14.8111 53.5551 14.7353 53.9932 14.584 54.391C14.4326 54.7892 14.2125 55.1311 13.9224 55.4178C13.6323 55.7059 13.2759 55.928 12.8537 56.0878C12.4324 56.2472 11.9519 56.3267 11.4136 56.3267C10.8747 56.3267 10.3942 56.2472 9.97198 56.0878C9.5507 55.928 9.19432 55.7059 8.90375 55.4178C8.61412 55.1311 8.39409 54.7892 8.24274 54.391C8.09134 53.9932 8.01562 53.5551 8.01562 53.0769C8.01562 52.6002 8.09134 52.162 8.24274 51.7638C8.39413 51.3661 8.61417 51.0241 8.90375 50.7374C9.19432 50.4494 9.5507 50.2272 9.97198 50.0674C10.3942 49.908 10.8747 49.8281 11.4136 49.8281C11.9519 49.8281 12.4324 49.908 12.8537 50.0674C13.2759 50.2272 13.6323 50.4494 13.9224 50.7374C14.2125 51.0241 14.4326 51.3661 14.584 51.7638C14.7353 52.162 14.8111 52.6002 14.8111 53.0769Z" fill="white"/>
<path d="M19.6393 56.3268C19.274 56.3268 18.9458 56.2947 18.6538 56.2301C18.3623 56.1665 18.1046 56.074 17.8832 55.9541C17.6603 55.8347 17.4718 55.6883 17.3152 55.5146C17.1591 55.3403 17.0341 55.1442 16.9396 54.9263C16.8629 54.7516 16.8093 54.5588 16.7755 54.3469C16.7426 54.1336 16.7266 53.8962 16.7266 53.6346V49.9453H18.0031V53.5319C18.0031 53.9752 18.0623 54.3214 18.1799 54.5709C18.3115 54.8483 18.5048 55.049 18.7582 55.1726C19.0116 55.2957 19.3111 55.358 19.6548 55.358C19.9985 55.358 20.2975 55.2957 20.551 55.1726C20.8049 55.049 20.9972 54.8483 21.1298 54.5709C21.2473 54.3214 21.307 53.9752 21.307 53.5319V49.9453H22.584V53.6346C22.584 53.8962 22.5675 54.1336 22.5337 54.3469C22.5013 54.5588 22.4458 54.7516 22.3701 54.9263C22.2761 55.1442 22.15 55.3403 21.9925 55.5146C21.8336 55.6883 21.6408 55.8347 21.4138 55.9541C21.1867 56.074 20.9243 56.1665 20.6295 56.2301C20.3342 56.2947 20.0042 56.3268 19.6393 56.3268Z" fill="white"/>
</g>
<path d="M27.6649 56.2092H26.3884V50.9062H24.1367V49.9453H29.911V50.9062H27.6649V56.2092Z" fill="white"/>
<path d="M32.7657 52.5255H35.9963V49.9453H37.2724V56.2088H35.9963V53.4845H32.7657V56.2088H31.4883V49.9453H32.7657V52.5255Z" fill="white"/>
<mask id="mask2_1365_87" style="mask-type:luminance" maskUnits="userSpaceOnUse" x="-293" y="-172" width="397" height="278">
<path d="M103.743 -171.465H-292.094V105.128H103.743V-171.465Z" fill="white"/>
</mask>
<g mask="url(#mask2_1365_87)">
<path d="M45.288 50.7974C44.9405 50.7974 44.6194 50.8489 44.3265 50.9526C44.0321 51.0543 43.781 51.2049 43.5709 51.4009C43.3602 51.598 43.1966 51.8414 43.0781 52.1291C42.9597 52.4185 42.9004 52.7466 42.9004 53.1188C42.9004 53.4891 42.955 53.8111 43.0622 54.0903C43.1698 54.371 43.325 54.6042 43.5258 54.7915C43.7275 54.9783 43.9738 55.1195 44.263 55.2152C44.5536 55.3091 44.8831 55.3579 45.2513 55.3579C45.5151 55.3579 45.7845 55.3384 46.0591 55.3017C46.3337 55.2645 46.5904 55.2092 46.8297 55.1381V56.125C46.5871 56.1877 46.3247 56.2365 46.044 56.2737C45.7619 56.309 45.47 56.3267 45.1671 56.3267C44.5766 56.3267 44.057 56.2514 43.6099 56.0994C43.1613 55.9484 42.7866 55.7342 42.4867 55.4578C42.1862 55.1813 41.9601 54.8509 41.8087 54.4658C41.6582 54.0801 41.582 53.6549 41.582 53.1898C41.582 52.7122 41.6624 52.2694 41.8242 51.86C41.9859 51.4516 42.2187 51.0971 42.5233 50.7974C42.8271 50.4977 43.2079 50.2621 43.6645 50.0897C44.121 49.9183 44.6386 49.8314 45.2151 49.8281C45.5094 49.8281 45.7896 49.8458 46.0534 49.8816C46.3181 49.9183 46.5565 49.9684 46.7676 50.0344V51.0088C46.4898 50.9298 46.2311 50.8745 45.9913 50.8438C45.7516 50.8127 45.5165 50.7974 45.288 50.7974Z" fill="white"/>
<path d="M54.0508 53.0769C54.0508 52.6969 53.9986 52.3632 53.8947 52.0779C53.7903 51.7922 53.6455 51.5538 53.4622 51.3638C53.2774 51.1742 53.0588 51.0316 52.8058 50.9372C52.5519 50.8438 52.2745 50.7974 51.9712 50.7974C51.6694 50.7974 51.3915 50.8438 51.1377 50.9372C50.8847 51.0316 50.6651 51.1742 50.4808 51.3638C50.2975 51.5538 50.1531 51.7922 50.0483 52.0779C49.9448 52.3632 49.8926 52.6969 49.8926 53.0769C49.8926 53.4584 49.9448 53.7906 50.0483 54.0778C50.1531 54.3626 50.2975 54.5996 50.4808 54.7892C50.6651 54.9773 50.8847 55.1195 51.1377 55.2152C51.3916 55.3091 51.6694 55.3579 51.9712 55.3579C52.2745 55.3579 52.5519 55.3091 52.8058 55.2152C53.0588 55.1195 53.2774 54.9773 53.4622 54.7892C53.6455 54.5996 53.7903 54.3626 53.8947 54.0778C53.9986 53.7906 54.0508 53.4584 54.0508 53.0769ZM55.3697 53.0769C55.3697 53.5551 55.294 53.9932 55.1435 54.391C54.9921 54.7892 54.7707 55.1311 54.481 55.4178C54.1905 55.7059 53.8345 55.928 53.4123 56.0878C52.9906 56.2472 52.5105 56.3267 51.9712 56.3267C51.4329 56.3267 50.9528 56.2472 50.5306 56.0878C50.1084 55.928 49.753 55.7059 49.4619 55.4178C49.1728 55.1311 48.9518 54.7892 48.8004 54.391C48.6495 53.9932 48.5742 53.5551 48.5742 53.0769C48.5742 52.6002 48.6495 52.162 48.8004 51.7638C48.9518 51.3661 49.1728 51.0241 49.4619 50.7374C49.753 50.4494 50.1084 50.2272 50.5306 50.0674C50.9528 49.908 51.4329 49.8281 51.9712 49.8281C52.5105 49.8281 52.9906 49.908 53.4123 50.0674C53.8345 50.2272 54.1905 50.4494 54.481 50.7374C54.7707 51.0241 54.9921 51.3661 55.1435 51.7638C55.294 52.162 55.3697 52.6002 55.3697 53.0769Z" fill="white"/>
<path d="M59.3602 52.8252C59.6517 52.8252 59.8999 52.8131 60.1026 52.7904C60.3062 52.7657 60.4769 52.7309 60.616 52.6839C60.8727 52.5961 61.0514 52.4772 61.1497 52.3262C61.2489 52.1752 61.2982 52.0009 61.2982 51.8044C61.2982 51.6362 61.2593 51.487 61.1812 51.3578C61.1031 51.2277 60.9705 51.1255 60.7829 51.0503C60.6616 51.0005 60.5079 50.9629 60.324 50.9401C60.1402 50.9164 59.9122 50.9062 59.6409 50.9062H58.7292V52.8252H59.3602ZM62.6114 51.8281C62.6114 52.2639 62.477 52.6361 62.2076 52.939C61.9391 53.2438 61.522 53.4692 60.9597 53.6165V53.6346L63.0341 56.2092H61.5018L59.6047 53.7847H58.7292V56.2092H57.4531V49.9453H59.5736C59.9244 49.9453 60.2512 49.9639 60.553 49.9988C60.8558 50.0345 61.1139 50.0889 61.3297 50.1609C61.7397 50.3022 62.0552 50.5099 62.2785 50.7859C62.5005 51.0623 62.6114 51.4099 62.6114 51.8281Z" fill="white"/>
<path d="M66.132 52.7968C66.2049 52.8057 66.298 52.8131 66.4108 52.8182C66.5241 52.8224 66.6412 52.8252 66.763 52.8252C67.1067 52.8252 67.3944 52.7996 67.6281 52.7495C67.8604 52.7007 68.0475 52.63 68.1904 52.5408C68.3324 52.4525 68.4354 52.3447 68.4984 52.2179C68.5609 52.092 68.5915 51.9535 68.5915 51.8039C68.5915 51.6208 68.5449 51.4605 68.4518 51.3262C68.3573 51.1924 68.1952 51.0879 67.961 51.0131C67.8397 50.9759 67.6897 50.9476 67.5106 50.9299C67.331 50.9136 67.1123 50.9057 66.8509 50.9057H66.132L66.132 52.7968ZM66.7841 53.7847C66.6685 53.7847 66.5556 53.7824 66.4447 53.7791C66.3337 53.7773 66.2298 53.7698 66.132 53.7615V56.2088H64.8555V49.9453H66.8669C67.2035 49.9453 67.4988 49.9588 67.7504 49.9853C68.0024 50.0127 68.2271 50.0522 68.4241 50.1061C68.9014 50.2357 69.2676 50.4443 69.5253 50.732C69.782 51.0182 69.9108 51.3848 69.9108 51.8281C69.9108 52.1296 69.8407 52.4024 69.702 52.6444C69.5624 52.8865 69.3593 53.0914 69.0913 53.2596C68.8252 53.4283 68.4984 53.5575 68.1129 53.649C67.7269 53.7392 67.2839 53.7847 66.7841 53.7847Z" fill="white"/>
<path d="M75.1676 54.4109C75.1676 54.2515 75.1238 54.1238 75.0378 54.0248C74.9508 53.9268 74.8319 53.8464 74.6833 53.7846C74.5338 53.7219 74.3669 53.6703 74.1797 53.6322C73.9936 53.5927 73.7989 53.555 73.5939 53.5179C73.3221 53.464 73.0635 53.4013 72.8172 53.3283C72.5703 53.2554 72.3536 53.1531 72.166 53.0235C71.9784 52.8939 71.8298 52.7298 71.7175 52.5291C71.607 52.3302 71.551 52.0803 71.551 51.781C71.551 51.4502 71.615 51.1621 71.7438 50.9159C71.8726 50.6724 72.0471 50.4689 72.2676 50.3086C72.4881 50.1473 72.7471 50.0265 73.0448 49.948C73.3414 49.8681 73.6757 49.8281 74.0476 49.8281C74.4191 49.8281 74.7929 49.8602 75.1676 49.9266C75.5419 49.9921 75.8658 50.0758 76.1366 50.1803V51.1621C75.7756 51.0343 75.4286 50.9405 75.0971 50.8838C74.7656 50.8262 74.4534 50.7974 74.1619 50.7974C73.7416 50.7974 73.4172 50.8661 73.1901 51.0037C72.962 51.1412 72.8487 51.3457 72.8487 51.6217C72.8487 51.781 72.8863 51.9107 72.9606 52.0143C73.0349 52.117 73.1379 52.2025 73.2658 52.2698C73.3941 52.3358 73.5422 52.3911 73.7082 52.4315C73.8751 52.472 74.0519 52.5096 74.24 52.543C74.5353 52.5997 74.8173 52.6648 75.0868 52.7373C75.3566 52.8111 75.5941 52.9134 75.8033 53.0439C76.0116 53.1754 76.1771 53.346 76.2984 53.5564C76.4202 53.7679 76.4813 54.0373 76.4813 54.3649C76.4813 54.7023 76.4117 54.9936 76.2725 55.2399C76.1334 55.4866 75.9359 55.6901 75.681 55.8513C75.4257 56.0116 75.1154 56.1306 74.7506 56.2086C74.3857 56.2867 73.9865 56.3267 73.5521 56.3267C73.1731 56.3267 72.8008 56.2937 72.434 56.2258C72.0677 56.1575 71.7626 56.0637 71.5195 55.9424V54.9732C71.8637 55.1079 72.1994 55.2055 72.5252 55.2659C72.8515 55.3263 73.1901 55.3579 73.5361 55.3579C73.7368 55.3579 73.9353 55.343 74.1309 55.3123C74.3255 55.2826 74.4995 55.2329 74.6547 55.1618C74.8084 55.0884 74.9335 54.9913 75.027 54.8677C75.1215 54.7445 75.1676 54.5931 75.1676 54.4109Z" fill="white"/>
<path d="M15.4212 63.5683C15.1372 63.5683 14.8655 63.5251 14.605 63.4382C14.3459 63.3509 14.1042 63.2166 13.8828 63.0386L14.2726 62.6218C14.4517 62.7603 14.6327 62.8663 14.8156 62.9401C14.9981 63.0159 15.2059 63.053 15.4377 63.053C15.6375 63.053 15.7964 63.0149 15.914 62.9387C16.0315 62.863 16.0903 62.7617 16.0903 62.6358V62.6256C16.0903 62.5666 16.0786 62.514 16.0565 62.4676C16.0339 62.4216 15.9911 62.3793 15.9295 62.3366C15.8684 62.2961 15.7837 62.2594 15.6761 62.2241C15.5684 62.1888 15.4288 62.1544 15.2562 62.1196C15.0587 62.0787 14.8834 62.0331 14.7306 61.9802C14.5778 61.9286 14.4489 61.864 14.346 61.7901C14.2406 61.7163 14.1612 61.6261 14.1076 61.5197C14.0516 61.4119 14.0248 61.2827 14.0248 61.1308V61.1206C14.0248 60.9789 14.0568 60.8488 14.1193 60.7303C14.1814 60.6123 14.2679 60.5114 14.3774 60.4283C14.4884 60.3437 14.6196 60.2786 14.7743 60.2322C14.9285 60.1848 15.0963 60.1602 15.2797 60.1602C15.5496 60.1602 15.7931 60.1959 16.0094 60.267C16.2252 60.3381 16.4279 60.4413 16.6178 60.5765L16.2709 61.0174C16.1016 60.9064 15.9342 60.8218 15.7696 60.7637C15.6041 60.7052 15.4377 60.6759 15.2684 60.6759C15.0794 60.6759 14.9308 60.714 14.8265 60.7888C14.7202 60.865 14.6675 60.9575 14.6675 61.069V61.0769C14.6675 61.142 14.6793 61.1972 14.7047 61.247C14.7301 61.2953 14.7752 61.3394 14.8401 61.3794C14.905 61.4184 14.9939 61.4561 15.109 61.4895C15.2233 61.5248 15.3691 61.562 15.5449 61.5992C15.7381 61.6428 15.9107 61.6926 16.0597 61.746C16.2102 61.7994 16.3343 61.864 16.4326 61.943C16.5309 62.0197 16.6056 62.1093 16.6573 62.212C16.7081 62.3152 16.733 62.4346 16.733 62.5703V62.5796C16.733 62.7334 16.702 62.8728 16.6366 62.9954C16.5722 63.1186 16.4829 63.2226 16.3672 63.3081C16.2525 63.3932 16.1147 63.4573 15.9534 63.5019C15.7917 63.5465 15.6144 63.5683 15.4212 63.5683Z" fill="white"/>
</g>
<path d="M20.2877 60.2109H19.6445V63.5243H20.2877V60.2109Z" fill="white"/>
<path d="M23.3867 60.2109H23.9862L25.9577 62.5016V60.2109H26.6004V63.5243H26.0583L24.028 61.1676V63.5243H23.3867V60.2109Z" fill="white"/>
<mask id="mask3_1365_87" style="mask-type:luminance" maskUnits="userSpaceOnUse" x="-293" y="-172" width="397" height="278">
<path d="M103.743 -171.465H-292.094V105.128H103.743V-171.465Z" fill="white"/>
</mask>
<g mask="url(#mask3_1365_87)">
<path d="M31.4044 63.58C31.1166 63.58 30.8552 63.5368 30.6201 63.4504C30.3846 63.363 30.1829 63.2432 30.0159 63.0903C29.8495 62.9379 29.7202 62.7576 29.6285 62.5499C29.5373 62.3436 29.4922 62.1183 29.4922 61.8766V61.8664C29.4922 61.636 29.5392 61.4171 29.6327 61.208C29.7263 60.9999 29.858 60.8186 30.0287 60.6621C30.197 60.5059 30.3982 60.3814 30.6324 60.2903C30.866 60.1988 31.1218 60.1523 31.3992 60.1523C31.561 60.1523 31.7081 60.164 31.8393 60.1835C31.971 60.2039 32.0937 60.2346 32.206 60.2708C32.3179 60.3099 32.4242 60.3559 32.5243 60.4121C32.6245 60.466 32.7213 60.5296 32.8173 60.6035L32.4054 61.0431C32.3353 60.9892 32.2634 60.9404 32.1896 60.8962C32.1158 60.8521 32.0396 60.8159 31.9578 60.7843C31.8769 60.7545 31.7881 60.7318 31.6912 60.7141C31.5948 60.696 31.4895 60.6876 31.3729 60.6876C31.2046 60.6876 31.0471 60.7201 30.9018 60.7819C30.756 60.8465 30.6291 60.9302 30.5219 61.0366C30.4151 61.1416 30.33 61.2675 30.2699 61.4092C30.2078 61.5509 30.1768 61.7019 30.1768 61.8599V61.8683C30.1768 62.0397 30.2069 62.1973 30.2661 62.3436C30.3253 62.4886 30.4109 62.6136 30.5214 62.7177C30.6319 62.8222 30.7626 62.9035 30.9154 62.9648C31.0677 63.0252 31.2384 63.0554 31.4274 63.0554C31.6037 63.0554 31.7669 63.0327 31.9197 62.9858C32.072 62.9393 32.2032 62.878 32.3165 62.8027V62.1787H31.3729V61.6713H32.9428V63.0638C32.8521 63.134 32.7514 63.1995 32.64 63.2627C32.5295 63.3273 32.4106 63.3807 32.2827 63.429C32.1534 63.4764 32.0151 63.5131 31.8684 63.5401C31.7213 63.5666 31.5666 63.58 31.4044 63.58Z" fill="white"/>
</g>
<path d="M38.1279 62.2082L37.4903 60.8826L36.8584 62.2082H38.1279ZM37.2002 60.1875H37.8021L39.4242 63.5237H38.7396L38.3644 62.7231H36.6214L36.2411 63.5237H35.5781L37.2002 60.1875Z" fill="white"/>
<path d="M43.5633 61.9348C43.8097 61.9348 44.0048 61.8776 44.1482 61.7684C44.2902 61.6564 44.3621 61.5143 44.3621 61.3405V61.3307C44.3621 61.1346 44.2888 60.986 44.1444 60.8856C43.9996 60.7862 43.8069 60.7364 43.5633 60.7364H42.8073V61.9348H43.5633ZM42.1641 60.2109H43.6183C43.8332 60.2109 44.0269 60.237 44.2013 60.289C44.3748 60.3415 44.5225 60.4158 44.6438 60.5143C44.7651 60.6119 44.8577 60.7285 44.9226 60.8642C44.9879 60.9994 45.0199 61.1514 45.0199 61.3186V61.3279C45.0199 61.5143 44.9809 61.6774 44.9038 61.8177C44.8262 61.9585 44.7214 62.0765 44.5874 62.1708C44.4529 62.2647 44.2964 62.3381 44.1172 62.3864C43.9381 62.4352 43.7458 62.4603 43.5417 62.4603H42.8073V63.5243H42.1641L42.1641 60.2109Z" fill="white"/>
<path d="M49.5623 63.0457C49.7447 63.0457 49.9116 63.0136 50.064 62.9537C50.2163 62.891 50.3465 62.8087 50.4556 62.7023C50.5633 62.5964 50.6479 62.4728 50.709 62.3306C50.7706 62.1889 50.8007 62.0374 50.8007 61.8766V61.8664C50.8007 61.7052 50.7706 61.5532 50.709 61.4092C50.6479 61.2675 50.5619 61.1406 50.4514 61.0356C50.3423 60.9302 50.2093 60.8456 50.056 60.7819C49.9022 60.7201 49.7344 60.6876 49.5524 60.6876C49.37 60.6876 49.2031 60.7178 49.0517 60.781C48.8993 60.8428 48.7691 60.9251 48.6605 61.0315C48.5514 61.1365 48.4677 61.2605 48.4061 61.4022C48.3445 61.544 48.314 61.695 48.314 61.8571V61.8664C48.314 62.0272 48.3445 62.1787 48.4061 62.3232C48.4677 62.4667 48.5528 62.5913 48.6633 62.6972C48.7729 62.8036 48.905 62.8877 49.0592 62.9504C49.212 63.0136 49.3803 63.0457 49.5623 63.0457ZM49.5524 63.58C49.2684 63.58 49.0079 63.535 48.7724 63.4453C48.5373 63.3561 48.3342 63.232 48.1663 63.0787C47.9971 62.924 47.8659 62.7432 47.7714 62.5369C47.6764 62.3306 47.6289 62.1104 47.6289 61.8766V61.8664C47.6289 61.6332 47.6764 61.4125 47.7714 61.2062C47.8659 60.9999 47.9999 60.8186 48.1715 60.6621C48.344 60.5059 48.5476 60.3814 48.7832 60.2903C49.0178 60.1988 49.2783 60.1523 49.5623 60.1523C49.8463 60.1523 50.1063 60.1983 50.3423 60.288C50.5779 60.3791 50.78 60.4999 50.9484 60.6551C51.1171 60.8098 51.2493 60.9906 51.3438 61.1969C51.4387 61.4041 51.4863 61.6239 51.4863 61.8571V61.8664C51.4863 62.1001 51.4387 62.3204 51.3438 62.5267C51.2493 62.7339 51.1153 62.9147 50.9432 63.0717C50.7711 63.2278 50.5671 63.3519 50.3315 63.4425C50.0969 63.535 49.8373 63.58 49.5524 63.58Z" fill="white"/>
<path d="M55.9733 61.8544C56.206 61.8544 56.3903 61.8042 56.5276 61.7038C56.6654 61.6049 56.734 61.4678 56.734 61.2964V61.288C56.734 61.1072 56.6663 60.9706 56.5332 60.8758C56.3992 60.7834 56.2116 60.7364 55.9681 60.7364H55.0212V61.8544H55.9733ZM54.3789 60.2109H56.0226C56.2549 60.2109 56.4599 60.2397 56.6395 60.2983C56.8186 60.3568 56.9672 60.4377 57.0871 60.5422C57.1849 60.6338 57.2606 60.7397 57.3142 60.8605C57.3659 60.9795 57.3927 61.1114 57.3927 61.2573V61.2666C57.3927 61.4023 57.3711 61.5245 57.3274 61.6328C57.2832 61.7419 57.2225 61.8381 57.1454 61.9227C57.0678 62.0059 56.9752 62.0774 56.8685 62.135C56.7613 62.1945 56.6428 62.2387 56.513 62.2698L57.5084 63.5243H56.7443L55.8355 62.3701H55.0212V63.5243H54.3789V60.2109Z" fill="white"/>
<path d="M60.2969 60.2109H63.0262V60.7364H60.9401V61.5881H62.7893V62.1137H60.9401V62.9988H63.0521V63.5243H60.2969V60.2109Z" fill="white"/>
</g>
</g>
<defs>
<clipPath id="clip0_1365_87">
<rect width="379" height="181" fill="white" transform="translate(-151 -88)"/>
</clipPath>
<clipPath id="clip1_1365_87">
<rect width="76.6064" height="138" fill="white" transform="translate(0.195312 -33)"/>
</clipPath>
</defs>
</svg>
