<svg width="93" height="54" viewBox="0 0 93 54" fill="none" xmlns="http://www.w3.org/2000/svg">
<path d="M7.3662 8.742C7.6182 8.30333 7.99153 7.93933 8.4862 7.65C8.9902 7.35133 9.57353 7.202 10.2362 7.202C10.9175 7.202 11.5335 7.36533 12.0842 7.692C12.6442 8.01867 13.0829 8.48067 13.4002 9.078C13.7175 9.666 13.8762 10.352 13.8762 11.136C13.8762 11.9107 13.7175 12.6013 13.4002 13.208C13.0829 13.8147 12.6442 14.286 12.0842 14.622C11.5335 14.958 10.9175 15.126 10.2362 15.126C9.58287 15.126 9.0042 14.9813 8.5002 14.692C8.00553 14.3933 7.62753 14.0247 7.3662 13.586V18.64H6.0922V7.328H7.3662V8.742ZM12.5742 11.136C12.5742 10.5573 12.4575 10.0533 12.2242 9.624C11.9909 9.19467 11.6735 8.868 11.2722 8.644C10.8802 8.42 10.4462 8.308 9.9702 8.308C9.50353 8.308 9.06953 8.42467 8.6682 8.658C8.2762 8.882 7.95887 9.21333 7.7162 9.652C7.48287 10.0813 7.3662 10.5807 7.3662 11.15C7.3662 11.7287 7.48287 12.2373 7.7162 12.676C7.95887 13.1053 8.2762 13.4367 8.6682 13.67C9.06953 13.894 9.50353 14.006 9.9702 14.006C10.4462 14.006 10.8802 13.894 11.2722 13.67C11.6735 13.4367 11.9909 13.1053 12.2242 12.676C12.4575 12.2373 12.5742 11.724 12.5742 11.136ZM18.8991 15.126C18.1805 15.126 17.5271 14.9627 16.9391 14.636C16.3605 14.3093 15.9031 13.8473 15.5671 13.25C15.2405 12.6433 15.0771 11.9433 15.0771 11.15C15.0771 10.366 15.2451 9.67533 15.5811 9.078C15.9265 8.47133 16.3931 8.00933 16.9811 7.692C17.5691 7.36533 18.2271 7.202 18.9551 7.202C19.6831 7.202 20.3411 7.36533 20.9291 7.692C21.5171 8.00933 21.9791 8.46667 22.3151 9.064C22.6605 9.66133 22.8331 10.3567 22.8331 11.15C22.8331 11.9433 22.6558 12.6433 22.3011 13.25C21.9558 13.8473 21.4845 14.3093 20.8871 14.636C20.2898 14.9627 19.6271 15.126 18.8991 15.126ZM18.8991 14.006C19.3565 14.006 19.7858 13.8987 20.1871 13.684C20.5885 13.4693 20.9105 13.1473 21.1531 12.718C21.4051 12.2887 21.5311 11.766 21.5311 11.15C21.5311 10.534 21.4098 10.0113 21.1671 9.582C20.9245 9.15267 20.6071 8.83533 20.2151 8.63C19.8231 8.41533 19.3985 8.308 18.9411 8.308C18.4745 8.308 18.0451 8.41533 17.6531 8.63C17.2705 8.83533 16.9625 9.15267 16.7291 9.582C16.4958 10.0113 16.3791 10.534 16.3791 11.15C16.3791 11.7753 16.4911 12.3027 16.7151 12.732C16.9485 13.1613 17.2565 13.4833 17.6391 13.698C18.0218 13.9033 18.4418 14.006 18.8991 14.006ZM34.7282 7.328L32.3342 15H31.0182L29.1702 8.91L27.3222 15H26.0062L23.5982 7.328H24.9002L26.6642 13.768L28.5682 7.328H29.8702L31.7322 13.782L33.4682 7.328H34.7282ZM42.9926 10.87C42.9926 11.1127 42.9786 11.3693 42.9506 11.64H36.8186C36.8653 12.396 37.1219 12.9887 37.5886 13.418C38.0646 13.838 38.6386 14.048 39.3106 14.048C39.8613 14.048 40.3186 13.922 40.6826 13.67C41.0559 13.4087 41.3173 13.0633 41.4666 12.634H42.8386C42.6333 13.3713 42.2226 13.9733 41.6066 14.44C40.9906 14.8973 40.2253 15.126 39.3106 15.126C38.5826 15.126 37.9293 14.9627 37.3506 14.636C36.7813 14.3093 36.3333 13.8473 36.0066 13.25C35.6799 12.6433 35.5166 11.9433 35.5166 11.15C35.5166 10.3567 35.6753 9.66133 35.9926 9.064C36.3099 8.46667 36.7533 8.00933 37.3226 7.692C37.9013 7.36533 38.5639 7.202 39.3106 7.202C40.0386 7.202 40.6826 7.36067 41.2426 7.678C41.8026 7.99533 42.2319 8.434 42.5306 8.994C42.8386 9.54467 42.9926 10.17 42.9926 10.87ZM41.6766 10.604C41.6766 10.1187 41.5693 9.70333 41.3546 9.358C41.1399 9.00333 40.8459 8.73733 40.4726 8.56C40.1086 8.37333 39.7026 8.28 39.2546 8.28C38.6106 8.28 38.0599 8.48533 37.6026 8.896C37.1546 9.30667 36.8979 9.876 36.8326 10.604H41.6766ZM45.9482 8.574C46.1722 8.13533 46.4896 7.79467 46.9002 7.552C47.3202 7.30933 47.8289 7.188 48.4262 7.188V8.504H48.0902C46.6622 8.504 45.9482 9.27867 45.9482 10.828V15H44.6742V7.328H45.9482V8.574ZM56.8969 10.87C56.8969 11.1127 56.8829 11.3693 56.8549 11.64H50.7229C50.7696 12.396 51.0262 12.9887 51.4929 13.418C51.9689 13.838 52.5429 14.048 53.2149 14.048C53.7656 14.048 54.2229 13.922 54.5869 13.67C54.9602 13.4087 55.2216 13.0633 55.3709 12.634H56.7429C56.5376 13.3713 56.1269 13.9733 55.5109 14.44C54.8949 14.8973 54.1296 15.126 53.2149 15.126C52.4869 15.126 51.8336 14.9627 51.2549 14.636C50.6856 14.3093 50.2376 13.8473 49.9109 13.25C49.5842 12.6433 49.4209 11.9433 49.4209 11.15C49.4209 10.3567 49.5796 9.66133 49.8969 9.064C50.2142 8.46667 50.6576 8.00933 51.2269 7.692C51.8056 7.36533 52.4682 7.202 53.2149 7.202C53.9429 7.202 54.5869 7.36067 55.1469 7.678C55.7069 7.99533 56.1362 8.434 56.4349 8.994C56.7429 9.54467 56.8969 10.17 56.8969 10.87ZM55.5809 10.604C55.5809 10.1187 55.4736 9.70333 55.2589 9.358C55.0442 9.00333 54.7502 8.73733 54.3769 8.56C54.0129 8.37333 53.6069 8.28 53.1589 8.28C52.5149 8.28 51.9642 8.48533 51.5069 8.896C51.0589 9.30667 50.8022 9.876 50.7369 10.604H55.5809ZM58.1025 11.136C58.1025 10.352 58.2612 9.666 58.5785 9.078C58.8959 8.48067 59.3299 8.01867 59.8805 7.692C60.4405 7.36533 61.0659 7.202 61.7565 7.202C62.3539 7.202 62.9092 7.342 63.4225 7.622C63.9359 7.89267 64.3279 8.252 64.5985 8.7V4.64H65.8865V15H64.5985V13.558C64.3465 14.0153 63.9732 14.3933 63.4785 14.692C62.9839 14.9813 62.4052 15.126 61.7425 15.126C61.0612 15.126 60.4405 14.958 59.8805 14.622C59.3299 14.286 58.8959 13.8147 58.5785 13.208C58.2612 12.6013 58.1025 11.9107 58.1025 11.136ZM64.5985 11.15C64.5985 10.5713 64.4819 10.0673 64.2485 9.638C64.0152 9.20867 63.6979 8.882 63.2965 8.658C62.9045 8.42467 62.4705 8.308 61.9945 8.308C61.5185 8.308 61.0845 8.42 60.6925 8.644C60.3005 8.868 59.9879 9.19467 59.7545 9.624C59.5212 10.0533 59.4045 10.5573 59.4045 11.136C59.4045 11.724 59.5212 12.2373 59.7545 12.676C59.9879 13.1053 60.3005 13.4367 60.6925 13.67C61.0845 13.894 61.5185 14.006 61.9945 14.006C62.4705 14.006 62.9045 13.894 63.2965 13.67C63.6979 13.4367 64.0152 13.1053 64.2485 12.676C64.4819 12.2373 64.5985 11.7287 64.5985 11.15ZM73.0459 8.756C73.3072 8.29867 73.6899 7.92533 74.1939 7.636C74.6979 7.34667 75.2719 7.202 75.9159 7.202C76.6066 7.202 77.2272 7.36533 77.7779 7.692C78.3286 8.01867 78.7626 8.48067 79.0799 9.078C79.3972 9.666 79.5559 10.352 79.5559 11.136C79.5559 11.9107 79.3972 12.6013 79.0799 13.208C78.7626 13.8147 78.3239 14.286 77.7639 14.622C77.2132 14.958 76.5972 15.126 75.9159 15.126C75.2532 15.126 74.6699 14.9813 74.1659 14.692C73.6712 14.4027 73.2979 14.034 73.0459 13.586V15H71.7719V4.64H73.0459V8.756ZM78.2539 11.136C78.2539 10.5573 78.1372 10.0533 77.9039 9.624C77.6706 9.19467 77.3532 8.868 76.9519 8.644C76.5599 8.42 76.1259 8.308 75.6499 8.308C75.1832 8.308 74.7492 8.42467 74.3479 8.658C73.9559 8.882 73.6386 9.21333 73.3959 9.652C73.1626 10.0813 73.0459 10.5807 73.0459 11.15C73.0459 11.7287 73.1626 12.2373 73.3959 12.676C73.6386 13.1053 73.9559 13.4367 74.3479 13.67C74.7492 13.894 75.1832 14.006 75.6499 14.006C76.1259 14.006 76.5599 13.894 76.9519 13.67C77.3532 13.4367 77.6706 13.1053 77.9039 12.676C78.1372 12.2373 78.2539 11.724 78.2539 11.136ZM87.8408 7.328L83.2208 18.612H81.9048L83.4168 14.916L80.3228 7.328H81.7368L84.1448 13.544L86.5248 7.328H87.8408Z" fill="#656565"/>
<g clip-path="url(#clip0_139_577)">
<path d="M10.2058 25.415C4.56926 25.415 0 30.0678 0 35.8073C0 41.5468 4.56926 46.1996 10.2058 46.1996C15.8423 46.1996 20.4115 41.5468 20.4115 35.8073C20.4115 30.0678 15.8423 25.415 10.2058 25.415ZM16.6177 37.9873C16.3842 38.7878 15.988 39.5321 15.4293 40.2199C14.8702 40.908 14.1609 41.4646 13.3012 41.8897C12.4413 42.3151 11.4708 42.5276 10.39 42.5276C9.11236 42.5276 7.97318 42.2432 6.97222 41.674C5.97095 41.1049 5.19098 40.3137 4.63225 39.3006C4.07314 38.2875 3.79386 37.1307 3.79386 35.8297C3.79386 34.5286 4.07313 33.369 4.63225 32.3494C5.19098 31.3301 5.96807 30.5359 6.96299 29.9667C7.95799 29.3976 9.09399 29.113 10.3716 29.113C11.9193 29.113 13.2243 29.4946 14.287 30.2574C15.3493 31.0205 16.0526 32.0773 16.3966 33.4282H12.9143C12.6808 32.9905 12.346 32.656 11.9101 32.4244C11.4739 32.1931 10.9612 32.0773 10.3716 32.0773C9.35196 32.0773 8.53518 32.4183 7.92109 33.0998C7.30677 33.7817 6.99985 34.6916 6.99985 35.8296C6.99985 37.043 7.32231 37.9905 7.96714 38.672C8.61207 39.3539 9.49936 39.6946 10.6296 39.6946C11.4034 39.6946 12.0575 39.4946 12.5919 39.0942C13.1261 38.694 13.516 38.1186 13.7618 37.3681H9.76357V35.0041H16.6177V37.9872L16.6177 37.9873Z" fill="#FF7300"/>
<path d="M21.7694 27.5503C21.2337 27.0434 20.9659 26.4163 20.9659 25.6698C20.9659 24.9046 21.2337 24.2681 21.7694 23.7607C22.305 23.2538 22.9958 23 23.8417 23C24.6685 23 25.3499 23.2538 25.8856 23.7607C26.4213 24.2681 26.6891 24.9046 26.6891 25.6698C26.6891 26.4163 26.4213 27.0434 25.8856 27.5503C25.3499 28.0576 24.6685 28.311 23.8417 28.311C22.9958 28.311 22.3051 28.0576 21.7694 27.5503ZM26.238 29.9761V45.9953H21.417V29.9761H26.238Z" fill="#FF7300"/>
<path d="M92.9154 39.1624H82.0047C82.0795 40.1578 82.3945 40.9185 82.9492 41.4447C83.5033 41.9713 84.1847 42.2342 84.9931 42.2342C86.1957 42.2342 87.0323 41.7175 87.5023 40.684H92.6335C92.37 41.7368 91.8956 42.6841 91.2097 43.5261C90.5234 44.3685 89.6635 45.0288 88.63 45.5069C87.5962 45.9855 86.4403 46.2247 85.1622 46.2247C83.6209 46.2247 82.2487 45.89 81.0461 45.2199C79.843 44.5501 78.9034 43.5934 78.2268 42.3491C77.5502 41.1052 77.2118 39.6505 77.2118 37.9854C77.2118 36.3204 77.5452 34.866 78.2126 33.6217C78.8796 32.3778 79.8148 31.4211 81.0178 30.7508C82.2205 30.0812 83.6019 29.7461 85.1622 29.7461C86.6847 29.7461 88.0379 30.0718 89.222 30.7222C90.4062 31.3731 91.3317 32.3011 91.9991 33.5069C92.6661 34.7127 93 36.1194 93 37.727C93 38.1863 92.9717 38.6649 92.9154 39.1625L92.9154 39.1624ZM85.2313 36.9501C86.7257 36.9504 87.7855 35.8776 88.0514 34.676C88.219 33.9192 87.9677 33.3025 87.2376 33.5019C86.8584 33.6055 86.5049 33.8128 86.1235 33.9024C85.5316 34.0416 84.784 34.0473 84.1985 33.8636C83.869 33.7601 83.5584 33.593 83.225 33.5019C82.4949 33.3025 82.2436 33.9192 82.4111 34.676C82.6771 35.8776 83.7369 36.9504 85.2313 36.9501H85.2313Z" fill="#FF7300"/>
<path d="M74.6964 31.6124C73.5405 30.4067 71.9851 29.8037 70.0305 29.8037C68.9212 29.8037 67.8971 30.0814 66.9574 30.6363C66.0174 31.1917 65.2751 31.9094 64.7302 32.7895C64.2038 31.8326 63.4756 31.0956 62.5453 30.5789C61.6149 30.0621 60.5576 29.8037 59.3735 29.8037C58.377 29.8037 57.4845 30.0003 56.6951 30.3923C55.9276 30.7739 55.3032 31.2878 54.8201 31.9315L54.0098 32.9442C53.7556 32.4506 53.4411 32.0061 53.0637 31.6124C52.2641 30.7783 51.273 30.2331 50.091 29.976C50.0596 29.9692 50.0273 29.9637 49.9956 29.9573C49.4962 29.856 48.9643 29.8037 48.3978 29.8037C47.2885 29.8037 46.2644 30.0814 45.3247 30.6363C44.3847 31.1917 43.6424 31.9094 43.0975 32.7894C42.5711 31.8326 41.8429 31.0956 40.9126 30.5789C39.9822 30.0621 38.9249 29.8037 37.7408 29.8037C36.7443 29.8037 35.8518 30.0003 35.0624 30.3923C34.2731 30.7847 33.6338 31.3159 33.1453 31.9856V29.976H28.3243V45.9952H33.1453V37.2966C33.1453 36.2631 33.4132 35.4643 33.9489 34.8994C34.4845 34.3352 35.2219 34.0526 36.1619 34.0526C37.1019 34.0526 37.8395 34.3351 38.3751 34.8994C38.9108 35.4643 39.1787 36.2631 39.1787 37.2966V45.9952H43.9715V37.2966C43.9715 36.2631 44.2393 35.4643 44.775 34.8994C45.3106 34.3352 46.0481 34.0526 46.9882 34.0526C47.9283 34.0526 48.6656 34.3351 49.2014 34.8994C49.6075 35.3277 49.8589 35.8911 49.9571 36.5887V45.9952H54.7976V36.8536C54.8026 36.4883 54.8558 36.1979 54.9206 35.9765C55.0634 35.551 55.2902 35.2067 55.5816 34.8994C56.1172 34.3352 56.8547 34.0526 57.7947 34.0526C58.7347 34.0526 59.4722 34.3351 60.0079 34.8994C60.5435 35.4643 60.8114 36.2631 60.8114 37.2966V45.9952H65.6043V37.2966C65.6043 36.2631 65.872 35.4643 66.4077 34.8994C66.9433 34.3352 67.6808 34.0526 68.6209 34.0526C69.561 34.0526 70.2983 34.3351 70.8341 34.8994C71.3697 35.4643 71.6375 36.2631 71.6375 37.2966V45.9952H76.4304V36.6364C76.4304 34.493 75.8524 32.8182 74.6965 31.6124L74.6964 31.6124Z" fill="#FF7300"/>
<path d="M7.3314 50.6651C7.2624 50.5174 7.1627 50.4032 7.03214 50.3221C6.90144 50.2412 6.74945 50.2008 6.57619 50.2008C6.40277 50.2008 6.24669 50.2412 6.10777 50.3221C5.96885 50.4032 5.85959 50.5193 5.78009 50.6703C5.70045 50.8215 5.66078 50.9962 5.66078 51.1947C5.66078 51.3927 5.70045 51.567 5.78009 51.7168C5.85957 51.8669 5.96885 51.9824 6.10777 52.0632C6.24669 52.1443 6.40277 52.1848 6.57619 52.1848C6.81844 52.1848 7.01785 52.1111 7.17454 51.9635C7.33139 51.816 7.42273 51.6165 7.44887 51.365H6.4587V51.0965H7.79448V51.3505C7.77534 51.5585 7.71135 51.749 7.60208 51.9217C7.49281 52.0947 7.34918 52.2314 7.17106 52.3317C6.99294 52.4321 6.7946 52.4822 6.57619 52.4822C6.34578 52.4822 6.13558 52.4271 5.94576 52.3171C5.75562 52.2071 5.60547 52.0542 5.49513 51.8583C5.38463 51.6623 5.32946 51.4412 5.32946 51.1946C5.32946 50.948 5.38463 50.726 5.49513 50.5289C5.60547 50.3318 5.75562 50.1783 5.94576 50.0683C6.13558 49.9583 6.34578 49.9033 6.57619 49.9033C6.83973 49.9033 7.07318 49.9699 7.27608 50.1026C7.47913 50.2357 7.62701 50.4232 7.71956 50.665H7.3314V50.6651Z" fill="#FF7300"/>
<path d="M8.22188 50.9247C8.30259 50.7712 8.41352 50.6522 8.55487 50.5673C8.69621 50.4828 8.85351 50.4404 9.02693 50.4404C9.1979 50.4404 9.34625 50.4779 9.47209 50.5529C9.59794 50.628 9.6917 50.7221 9.75357 50.8359V50.4731H10.0812V52.4608H9.75357V52.0908C9.68943 52.2069 9.59383 52.3031 9.46677 52.3793C9.33971 52.4554 9.19183 52.4935 9.02328 52.4935C8.84986 52.4935 8.69318 52.4498 8.55304 52.3629C8.41291 52.2759 8.30257 52.1538 8.22188 51.9966C8.14103 51.8395 8.10075 51.6606 8.10075 51.4597C8.10075 51.2567 8.14103 51.0784 8.22188 50.9247ZM9.6645 51.0716C9.60508 50.9604 9.52498 50.8752 9.42407 50.8159C9.32315 50.7568 9.21205 50.7271 9.09092 50.7271C8.96995 50.7271 8.85945 50.7562 8.75975 50.814C8.66006 50.8722 8.58042 50.9567 8.52099 51.068C8.46171 51.1793 8.43207 51.3099 8.43207 51.4597C8.43207 51.612 8.46171 51.7445 8.52099 51.8568C8.58041 51.9693 8.66006 52.0552 8.75975 52.1143C8.85945 52.1738 8.96995 52.2033 9.09092 52.2033C9.21205 52.2033 9.32315 52.1738 9.42407 52.1143C9.52498 52.0552 9.60508 51.9693 9.6645 51.8568C9.72378 51.7445 9.75357 51.6132 9.75357 51.4634C9.75357 51.3135 9.72378 51.183 9.6645 51.0716Z" fill="#FF7300"/>
<path d="M13.3834 50.5326C13.5021 50.5967 13.5958 50.6928 13.6649 50.8209C13.7337 50.9492 13.7681 51.1052 13.7681 51.2888V52.4605H13.4475V51.3361C13.4475 51.1377 13.3993 50.9861 13.3033 50.8808C13.2071 50.7756 13.077 50.723 12.9131 50.723C12.7446 50.723 12.6104 50.7781 12.5107 50.8881C12.4108 50.9981 12.361 51.1571 12.361 51.3651V52.4605H12.0405V51.3361C12.0405 51.1377 11.9924 50.9861 11.8962 50.8808C11.8 50.7756 11.6699 50.723 11.5061 50.723C11.3375 50.723 11.2033 50.7781 11.1036 50.8881C11.0039 50.9981 10.9541 51.1571 10.9541 51.3651V52.4605H10.6299V50.4727H10.9541V50.7594C11.0181 50.6554 11.1042 50.5756 11.2123 50.5199C11.3204 50.4642 11.4397 50.4365 11.5702 50.4365C11.7341 50.4365 11.8789 50.4741 12.0049 50.549C12.1308 50.624 12.2245 50.7338 12.2862 50.879C12.3408 50.7388 12.4311 50.63 12.5569 50.5526C12.6828 50.4752 12.8229 50.4365 12.9773 50.4365C13.1293 50.4365 13.2646 50.4686 13.3834 50.5326L13.3834 50.5326Z" fill="#FF7300"/>
<path d="M14.3096 50.0848C14.2669 50.0411 14.2454 49.9879 14.2454 49.9251C14.2454 49.8622 14.2669 49.809 14.3096 49.7655C14.3523 49.722 14.4046 49.7002 14.4663 49.7002C14.5257 49.7002 14.5761 49.722 14.6176 49.7655C14.6593 49.809 14.6801 49.8622 14.6801 49.9251C14.6801 49.9879 14.6593 50.0411 14.6176 50.0848C14.5761 50.1281 14.5257 50.1499 14.4663 50.1499C14.4046 50.1499 14.3523 50.1281 14.3096 50.0848ZM14.6231 50.4727V52.4605H14.2989V50.4727H14.6231Z" fill="#FF7300"/>
<path d="M15.9694 50.7451H15.5598V52.4608H15.2356V50.7451H14.9827V50.473H15.2356V50.3315C15.2356 50.1092 15.292 49.9465 15.4048 49.8437C15.5175 49.741 15.6987 49.6895 15.9481 49.6895V49.9652C15.8055 49.9652 15.7052 49.9937 15.647 50.0503C15.5888 50.1073 15.5598 50.2011 15.5598 50.3315V50.473H15.9694V50.7451Z" fill="#FF7300"/>
<path d="M16.3577 50.0848C16.315 50.0411 16.2936 49.9879 16.2936 49.9251C16.2936 49.8622 16.315 49.809 16.3577 49.7655C16.4004 49.722 16.4527 49.7002 16.5144 49.7002C16.5738 49.7002 16.6243 49.722 16.6658 49.7655C16.7074 49.809 16.7282 49.8622 16.7282 49.9251C16.7282 49.9879 16.7074 50.0411 16.6658 50.0848C16.6243 50.1281 16.5738 50.1499 16.5144 50.1499C16.4527 50.1499 16.4004 50.1281 16.3577 50.0848ZM16.6712 50.4727V52.4605H16.347V50.4727H16.6712Z" fill="#FF7300"/>
<path d="M18.9935 51.5903H17.4334C17.4453 51.7862 17.5111 51.9391 17.631 52.0492C17.7509 52.1592 17.8964 52.2141 18.0674 52.2141C18.2075 52.2141 18.3245 52.1809 18.4183 52.1143C18.5121 52.0479 18.578 51.9591 18.616 51.8478H18.9651C18.9129 52.0388 18.8083 52.1942 18.6516 52.314C18.4949 52.4336 18.3002 52.4935 18.0674 52.4935C17.8823 52.4935 17.7166 52.4511 17.5705 52.3666C17.4245 52.2819 17.3099 52.1617 17.2267 52.0057C17.1436 51.8497 17.1021 51.6689 17.1021 51.4634C17.1021 51.2579 17.1424 51.0777 17.2232 50.923C17.304 50.7682 17.4173 50.649 17.5634 50.5656C17.7094 50.4822 17.8774 50.4404 18.0674 50.4404C18.2526 50.4404 18.4165 50.4816 18.559 50.5638C18.7014 50.646 18.8113 50.7591 18.8885 50.9028C18.9656 51.0468 19.0042 51.2094 19.0042 51.3908C19.0042 51.4538 19.0007 51.5202 18.9935 51.5903V51.5903ZM18.5874 50.9973C18.5329 50.9066 18.4587 50.8376 18.3648 50.7905C18.271 50.7434 18.1672 50.7198 18.0532 50.7198C17.8894 50.7198 17.7497 50.773 17.6346 50.8793C17.5194 50.9858 17.4535 51.1333 17.4369 51.3219H18.6693C18.6693 51.1963 18.6421 51.0879 18.5874 50.9973H18.5874Z" fill="#FF7300"/>
<path d="M19.4317 50.9244C19.5124 50.7709 19.6234 50.6519 19.7647 50.567C19.906 50.4825 20.0646 50.4401 20.2403 50.4401C20.3923 50.4401 20.5336 50.4759 20.6641 50.5472C20.7947 50.6184 20.8944 50.7122 20.9634 50.8283V49.7764H21.2911V52.4605H20.9634V52.0869C20.8993 52.2053 20.8043 52.3028 20.6784 52.379C20.5524 52.4551 20.4053 52.4932 20.2368 52.4932C20.0633 52.4932 19.906 52.4496 19.7647 52.3626C19.6234 52.2756 19.5124 52.1535 19.4317 51.9963C19.3509 51.8392 19.3106 51.6603 19.3106 51.4594C19.3106 51.2564 19.3509 51.0781 19.4317 50.9244ZM20.8743 51.0713C20.8149 50.9601 20.7348 50.8749 20.6339 50.8156C20.533 50.7565 20.4219 50.7268 20.3008 50.7268C20.1798 50.7268 20.0693 50.7559 19.9696 50.8137C19.8699 50.8719 19.7903 50.9564 19.7308 51.0677C19.6715 51.179 19.6419 51.3096 19.6419 51.4594C19.6419 51.6117 19.6715 51.7442 19.7308 51.8565C19.7902 51.969 19.8699 52.0549 19.9696 52.114C20.0693 52.1735 20.1798 52.203 20.3008 52.203C20.4219 52.203 20.533 52.1735 20.6339 52.114C20.7348 52.0549 20.8149 51.969 20.8743 51.8565C20.9336 51.7442 20.9634 51.6129 20.9634 51.4631C20.9634 51.3132 20.9336 51.1827 20.8743 51.0713Z" fill="#FF7300"/>
<path d="M23.115 49.9326V52.4608H22.7909V49.9326H23.115Z" fill="#FF7300"/>
<path d="M25.1951 50.656C25.3423 50.8022 25.416 51.0133 25.416 51.2888V52.4605H25.0954V51.3362C25.0954 51.1377 25.0467 50.9861 24.9493 50.8809C24.8519 50.7756 24.7189 50.723 24.5504 50.723C24.3794 50.723 24.2435 50.7775 24.1426 50.8863C24.0415 50.9951 23.9912 51.1535 23.9912 51.3615V52.4605H23.667V50.4728H23.9912V50.7558C24.0552 50.6541 24.1426 50.5757 24.2529 50.5199C24.3634 50.4642 24.485 50.4365 24.6181 50.4365C24.8555 50.4365 25.0478 50.5097 25.1951 50.656L25.1951 50.656Z" fill="#FF7300"/>
<path d="M26.3421 50.7452V51.9169C26.3421 52.0135 26.3623 52.0819 26.4027 52.1218C26.443 52.1618 26.5131 52.1816 26.6129 52.1816H26.8515V52.4609H26.5594C26.3788 52.4609 26.2436 52.4187 26.1533 52.3339C26.063 52.2494 26.0179 52.1104 26.0179 51.9169V50.7452H25.765V50.4732H26.0179V49.9727H26.3421V50.4732H26.8515V50.7452H26.3421H26.3421Z" fill="#FF7300"/>
<path d="M29.0137 51.5903H27.4536C27.4654 51.7862 27.5312 51.9391 27.6511 52.0492C27.771 52.1592 27.9165 52.2141 28.0875 52.2141C28.2276 52.2141 28.3446 52.1809 28.4384 52.1143C28.5322 52.0479 28.5981 51.9591 28.6361 51.8478H28.9852C28.933 52.0388 28.8284 52.1942 28.6717 52.314C28.515 52.4336 28.3203 52.4935 28.0875 52.4935C27.9024 52.4935 27.7367 52.4511 27.5907 52.3666C27.4446 52.2819 27.33 52.1617 27.2469 52.0057C27.1637 51.8497 27.1222 51.6689 27.1222 51.4634C27.1222 51.2579 27.1625 51.0777 27.2434 50.923C27.3241 50.7682 27.4375 50.649 27.5835 50.5656C27.7295 50.4822 27.8975 50.4404 28.0875 50.4404C28.2727 50.4404 28.4366 50.4816 28.5791 50.5638C28.7215 50.646 28.8314 50.7591 28.9086 50.9028C28.9857 51.0468 29.0243 51.2094 29.0243 51.3908C29.0243 51.4538 29.0208 51.5202 29.0137 51.5903V51.5903ZM28.6076 50.9973C28.553 50.9066 28.4788 50.8376 28.3849 50.7905C28.2911 50.7434 28.1873 50.7198 28.0733 50.7198C27.9095 50.7198 27.7698 50.773 27.6548 50.8793C27.5396 50.9858 27.4736 51.1333 27.457 51.3219H28.6895C28.6895 51.1963 28.6623 51.0879 28.6075 50.9973H28.6076Z" fill="#FF7300"/>
<path d="M30.0199 50.5308C30.1256 50.4679 30.2544 50.4365 30.4064 50.4365V50.7775H30.3209C29.9576 50.7775 29.776 50.9782 29.776 51.3795V52.4605H29.4518V50.4727H29.776V50.7956C29.833 50.682 29.9143 50.5936 30.0199 50.5308Z" fill="#FF7300"/>
<path d="M30.7805 50.9247C30.8612 50.7712 30.9721 50.6522 31.1135 50.5673C31.2548 50.4828 31.4121 50.4404 31.5855 50.4404C31.7565 50.4404 31.9048 50.4779 32.0307 50.5529C32.1565 50.628 32.2503 50.7221 32.3122 50.8359V50.4731H32.6398V52.4608H32.3122V52.0908C32.248 52.2069 32.1524 52.3031 32.0254 52.3793C31.8983 52.4554 31.7504 52.4935 31.5819 52.4935C31.4085 52.4935 31.2518 52.4498 31.1116 52.3629C30.9715 52.2759 30.8612 52.1538 30.7805 51.9966C30.6996 51.8395 30.6593 51.6606 30.6593 51.4597C30.6593 51.2567 30.6996 51.0784 30.7805 50.9247ZM32.2231 51.0716C32.1637 50.9604 32.0836 50.8752 31.9827 50.8159C31.8817 50.7568 31.7706 50.7271 31.6495 50.7271C31.5285 50.7271 31.418 50.7562 31.3183 50.814C31.2186 50.8722 31.139 50.9567 31.0796 51.068C31.0203 51.1793 30.9907 51.3099 30.9907 51.4597C30.9907 51.612 31.0203 51.7445 31.0796 51.8568C31.139 51.9693 31.2186 52.0552 31.3183 52.1143C31.418 52.1738 31.5285 52.2033 31.6495 52.2033C31.7706 52.2033 31.8817 52.1738 31.9827 52.1143C32.0836 52.0552 32.1637 51.9693 32.2231 51.8568C32.2824 51.7445 32.3122 51.6132 32.3122 51.4634C32.3122 51.3135 32.2824 51.183 32.2231 51.0716Z" fill="#FF7300"/>
<path d="M33.1885 50.9247C33.2692 50.7712 33.3814 50.6522 33.5251 50.5673C33.6688 50.4828 33.8332 50.4404 34.0185 50.4404C34.2583 50.4404 34.4559 50.4999 34.6115 50.6181C34.767 50.7366 34.8697 50.9011 34.9196 51.1115H34.5705C34.5372 50.9906 34.4726 50.8951 34.3764 50.8249C34.2802 50.7549 34.1609 50.7198 34.0185 50.7198C33.8332 50.7198 33.6836 50.7845 33.5697 50.9138C33.4557 51.0432 33.3987 51.2263 33.3987 51.4634C33.3987 51.7027 33.4557 51.8877 33.5697 52.0184C33.6836 52.149 33.8332 52.2142 34.0185 52.2142C34.1609 52.2142 34.2796 52.1803 34.3746 52.1126C34.4696 52.045 34.5349 51.9481 34.5705 51.8225H34.9196C34.8673 52.0255 34.7629 52.1883 34.6062 52.3103C34.4495 52.4325 34.2536 52.4935 34.0185 52.4935C33.8332 52.4935 33.6687 52.4511 33.5251 52.3666C33.3814 52.2819 33.2692 52.1623 33.1885 52.0075C33.1076 51.8528 33.0674 51.6714 33.0674 51.4634C33.0674 51.2579 33.1076 51.0784 33.1885 50.9247H33.1885Z" fill="#FF7300"/>
<path d="M35.7459 50.7452V51.9169C35.7459 52.0135 35.7661 52.0819 35.8066 52.1218C35.8468 52.1618 35.9169 52.1816 36.0167 52.1816H36.2554V52.4609H35.9632C35.7827 52.4609 35.6474 52.4187 35.5571 52.3339C35.4669 52.2494 35.4217 52.1104 35.4217 51.9169V50.7452H35.1688V50.4732H35.4217V49.9727H35.7459V50.4732H36.2553V50.7452H35.7459H35.7459Z" fill="#FF7300"/>
<path d="M36.6578 50.0848C36.6151 50.0411 36.5937 49.9879 36.5937 49.9251C36.5937 49.8622 36.6151 49.809 36.6578 49.7655C36.7005 49.722 36.7528 49.7002 36.8145 49.7002C36.8739 49.7002 36.9244 49.722 36.9659 49.7655C37.0075 49.809 37.0284 49.8622 37.0284 49.9251C37.0284 49.9879 37.0075 50.0411 36.9659 50.0848C36.9244 50.1281 36.8739 50.1499 36.8145 50.1499C36.7528 50.1499 36.7005 50.1281 36.6578 50.0848ZM36.9713 50.4727V52.4605H36.6472V50.4727H36.9713Z" fill="#FF7300"/>
<path d="M38.25 52.1557L38.8555 50.4727H39.2011L38.4353 52.4604H38.0576L37.2917 50.4727H37.6408L38.25 52.1557Z" fill="#FF7300"/>
<path d="M41.2919 51.5903H39.7318C39.7437 51.7862 39.8095 51.9391 39.9294 52.0492C40.0493 52.1592 40.1948 52.2141 40.3657 52.2141C40.5059 52.2141 40.6229 52.1809 40.7167 52.1143C40.8105 52.0479 40.8764 51.9591 40.9144 51.8478H41.2635C41.2112 52.0388 41.1067 52.1942 40.95 52.314C40.7933 52.4336 40.5986 52.4935 40.3658 52.4935C40.1806 52.4935 40.015 52.4511 39.8689 52.3666C39.7229 52.2819 39.6083 52.1617 39.5251 52.0057C39.442 51.8497 39.4005 51.6689 39.4005 51.4634C39.4005 51.2579 39.4408 51.0777 39.5216 50.923C39.6024 50.7682 39.7157 50.649 39.8618 50.5656C40.0078 50.4822 40.1758 50.4404 40.3657 50.4404C40.551 50.4404 40.7149 50.4816 40.8574 50.5638C40.9998 50.646 41.1097 50.7591 41.1869 50.9028C41.264 51.0468 41.3026 51.2094 41.3026 51.3908C41.3026 51.4538 41.2991 51.5202 41.2919 51.5903V51.5903ZM40.8858 50.9973C40.8313 50.9066 40.7571 50.8376 40.6632 50.7905C40.5694 50.7434 40.4656 50.7198 40.3516 50.7198C40.1878 50.7198 40.0481 50.773 39.933 50.8793C39.8178 50.9858 39.7519 51.1333 39.7353 51.3219H40.9677C40.9677 51.1963 40.9405 51.0879 40.8858 50.9973H40.8858Z" fill="#FF7300"/>
<path d="M45.1996 49.9502V52.4603H44.8754V50.5886L44.0562 52.4603H43.8282L43.0054 50.585V52.4603H42.6812V49.9502H43.0303L43.9422 52.0249L44.8541 49.9502H45.1996H45.1996Z" fill="#FF7300"/>
<path d="M46.1027 52.3666C45.9542 52.2819 45.8378 52.1617 45.7535 52.0057C45.6692 51.8497 45.6271 51.6689 45.6271 51.4634C45.6271 51.2602 45.6704 51.0807 45.757 50.9247C45.8437 50.7688 45.9619 50.649 46.1115 50.5656C46.2612 50.4822 46.4285 50.4404 46.6138 50.4404C46.799 50.4404 46.9664 50.4822 47.1161 50.5656C47.2656 50.649 47.3837 50.7682 47.4705 50.923C47.5571 51.0777 47.6004 51.2579 47.6004 51.4634C47.6004 51.6689 47.5559 51.8497 47.4668 52.0057C47.3778 52.1617 47.2573 52.2819 47.1053 52.3666C46.9533 52.4511 46.7847 52.4935 46.5995 52.4935C46.4166 52.4935 46.251 52.4511 46.1026 52.3666L46.1027 52.3666ZM46.9273 52.1199C47.0293 52.0642 47.1118 51.9809 47.1747 51.8695C47.2377 51.7584 47.2693 51.6229 47.2693 51.4634C47.2693 51.3037 47.2383 51.1684 47.1766 51.057C47.1149 50.9459 47.0342 50.8629 46.9343 50.8086C46.8346 50.7543 46.7265 50.727 46.6103 50.727C46.4914 50.727 46.3828 50.7543 46.2843 50.8086C46.1856 50.8629 46.1068 50.9459 46.0473 51.057C45.9881 51.1684 45.9584 51.3037 45.9584 51.4634C45.9584 51.6253 45.9874 51.7621 46.0457 51.8732C46.1037 51.9844 46.1815 52.0673 46.2789 52.1217C46.3762 52.1761 46.4832 52.2033 46.5995 52.2033C46.7159 52.2033 46.8252 52.1756 46.9273 52.1199L46.9273 52.1199Z" fill="#FF7300"/>
<path d="M48.6441 50.5527C48.7724 50.4776 48.9185 50.4401 49.0823 50.4401C49.258 50.4401 49.4159 50.4825 49.556 50.567C49.6962 50.6519 49.8067 50.7709 49.8874 50.9244C49.9681 51.0781 50.0085 51.2564 50.0085 51.4594C50.0085 51.6603 49.968 51.8392 49.8874 51.9963C49.8066 52.1535 49.6956 52.2756 49.5544 52.3626C49.413 52.4496 49.2557 52.4932 49.0823 52.4932C48.9138 52.4932 48.7659 52.4558 48.6388 52.3808C48.5118 52.3058 48.4162 52.2103 48.3522 52.0942V52.4605H48.028V49.7764H48.3522V50.8428C48.4186 50.7243 48.516 50.6277 48.6441 50.5526V50.5527ZM49.5881 51.0677C49.5288 50.9564 49.4486 50.8719 49.3477 50.8137C49.2468 50.7559 49.1358 50.7268 49.0147 50.7268C48.8958 50.7268 48.7861 50.7565 48.6852 50.8156C48.5843 50.8749 48.5036 50.9608 48.4429 51.0731C48.3824 51.1855 48.3522 51.3156 48.3522 51.4631C48.3522 51.6129 48.3824 51.7442 48.4429 51.8565C48.5036 51.969 48.5843 52.0549 48.6852 52.114C48.7861 52.1735 48.8958 52.203 49.0147 52.203C49.1358 52.203 49.2468 52.1735 49.3477 52.114C49.4486 52.0549 49.5288 51.969 49.5881 51.8565C49.6475 51.7442 49.6772 51.6117 49.6772 51.4594C49.6772 51.3096 49.6475 51.179 49.5881 51.0677V51.0677Z" fill="#FF7300"/>
<path d="M50.4467 50.0848C50.404 50.0411 50.3825 49.9879 50.3825 49.9251C50.3825 49.8622 50.404 49.809 50.4467 49.7655C50.4894 49.722 50.5417 49.7002 50.6034 49.7002C50.6628 49.7002 50.7133 49.722 50.7547 49.7655C50.7964 49.809 50.8172 49.8622 50.8172 49.9251C50.8172 49.9879 50.7964 50.0411 50.7547 50.0848C50.7133 50.1281 50.6628 50.1499 50.6034 50.1499C50.5417 50.1499 50.4894 50.1281 50.4467 50.0848ZM50.7602 50.4727V52.4605H50.436V50.4727H50.7602Z" fill="#FF7300"/>
<path d="M51.6364 49.7764V52.4605H51.3122V49.7764H51.6364Z" fill="#FF7300"/>
<path d="M53.9587 51.5903H52.3986C52.4105 51.7862 52.4763 51.9391 52.5962 52.0492C52.7161 52.1592 52.8615 52.2141 53.0325 52.2141C53.1726 52.2141 53.2897 52.1809 53.3834 52.1143C53.4772 52.0479 53.5432 51.9591 53.5812 51.8478H53.9303C53.878 52.0388 53.7734 52.1942 53.6168 52.314C53.4601 52.4336 53.2654 52.4935 53.0325 52.4935C52.8474 52.4935 52.6818 52.4511 52.5357 52.3666C52.3896 52.2819 52.275 52.1617 52.1919 52.0057C52.1088 51.8497 52.0673 51.6689 52.0673 51.4634C52.0673 51.2579 52.1076 51.0777 52.1884 50.923C52.2691 50.7682 52.3825 50.649 52.5285 50.5656C52.6746 50.4822 52.8425 50.4404 53.0325 50.4404C53.2178 50.4404 53.3816 50.4816 53.5242 50.5638C53.6666 50.646 53.7765 50.7591 53.8537 50.9028C53.9307 51.0468 53.9693 51.2094 53.9693 51.3908C53.9693 51.4538 53.9658 51.5202 53.9587 51.5903V51.5903ZM53.5526 50.9973C53.498 50.9066 53.4239 50.8376 53.3299 50.7905C53.2362 50.7434 53.1324 50.7198 53.0184 50.7198C52.8545 50.7198 52.7149 50.773 52.5998 50.8793C52.4846 50.9858 52.4186 51.1333 52.4021 51.3219H53.6345C53.6345 51.1963 53.6073 51.0879 53.5526 50.9973H53.5526Z" fill="#FF7300"/>
<path d="M57.8664 49.9502V52.4603H57.5422V50.5886L56.723 52.4603H56.495L55.6722 50.585V52.4603H55.348V49.9502H55.6971L56.609 52.0249L57.5209 49.9502H57.8664H57.8664Z" fill="#FF7300"/>
<path d="M58.4256 50.0848C58.3829 50.0411 58.3615 49.9879 58.3615 49.9251C58.3615 49.8622 58.3829 49.809 58.4256 49.7655C58.4683 49.722 58.5206 49.7002 58.5823 49.7002C58.6417 49.7002 58.6922 49.722 58.7337 49.7655C58.7754 49.809 58.7962 49.8622 58.7962 49.9251C58.7962 49.9879 58.7754 50.0411 58.7337 50.0848C58.6922 50.1281 58.6418 50.1499 58.5823 50.1499C58.5206 50.1499 58.4683 50.1281 58.4256 50.0848ZM58.7392 50.4727V52.4605H58.415V50.4727H58.7392Z" fill="#FF7300"/>
<path d="M59.2912 50.9247C59.3719 50.7712 59.484 50.6522 59.6278 50.5673C59.7714 50.4828 59.9359 50.4404 60.1212 50.4404C60.361 50.4404 60.5586 50.4999 60.7142 50.6181C60.8697 50.7366 60.9724 50.9011 61.0223 51.1115H60.6731C60.6399 50.9906 60.5753 50.8951 60.4791 50.8249C60.3828 50.7549 60.2635 50.7198 60.1211 50.7198C59.9359 50.7198 59.7863 50.7845 59.6723 50.9138C59.5583 51.0432 59.5014 51.2263 59.5014 51.4634C59.5014 51.7027 59.5583 51.8877 59.6723 52.0184C59.7863 52.149 59.9359 52.2142 60.1211 52.2142C60.2635 52.2142 60.3822 52.1803 60.4772 52.1126C60.5722 52.045 60.6376 51.9481 60.6731 51.8225H61.0223C60.97 52.0255 60.8656 52.1883 60.7089 52.3103C60.5522 52.4325 60.3563 52.4935 60.1211 52.4935C59.9359 52.4935 59.7714 52.4511 59.6278 52.3666C59.484 52.2819 59.3719 52.1623 59.2912 52.0075C59.2103 51.8528 59.17 51.6714 59.17 51.4634C59.17 51.2579 59.2103 51.0784 59.2912 50.9247H59.2912Z" fill="#FF7300"/>
<path d="M62.0214 50.5308C62.127 50.4679 62.2559 50.4365 62.4079 50.4365V50.7775H62.3223C61.9591 50.7775 61.7775 50.9782 61.7775 51.3795V52.4605H61.4533V50.4727H61.7775V50.7956C61.8345 50.682 61.9158 50.5936 62.0214 50.5308Z" fill="#FF7300"/>
<path d="M63.1364 52.3666C62.9879 52.2819 62.8715 52.1617 62.7873 52.0057C62.7029 51.8497 62.6608 51.6689 62.6608 51.4634C62.6608 51.2602 62.7041 51.0807 62.7908 50.9247C62.8774 50.7688 62.9956 50.649 63.1452 50.5656C63.2949 50.4822 63.4622 50.4404 63.6475 50.4404C63.8327 50.4404 64.0001 50.4822 64.1498 50.5656C64.2993 50.649 64.4174 50.7682 64.5042 50.923C64.5908 51.0777 64.6341 51.2579 64.6341 51.4634C64.6341 51.6689 64.5896 51.8497 64.5005 52.0057C64.4115 52.1617 64.291 52.2819 64.139 52.3666C63.987 52.4511 63.8184 52.4935 63.6332 52.4935C63.4503 52.4935 63.2847 52.4511 63.1364 52.3666L63.1364 52.3666ZM63.961 52.1199C64.063 52.0642 64.1455 51.9809 64.2084 51.8695C64.2714 51.7584 64.303 51.6229 64.303 51.4634C64.303 51.3037 64.272 51.1684 64.2103 51.057C64.1486 50.9459 64.0679 50.8629 63.968 50.8086C63.8683 50.7543 63.7602 50.727 63.644 50.727C63.5251 50.727 63.4165 50.7543 63.318 50.8086C63.2193 50.8629 63.1405 50.9459 63.081 51.057C63.0218 51.1684 62.9921 51.3037 62.9921 51.4634C62.9921 51.6253 63.0212 51.7621 63.0794 51.8732C63.1374 51.9844 63.2152 52.0673 63.3126 52.1217C63.4099 52.1761 63.5169 52.2033 63.6332 52.2033C63.7496 52.2033 63.8589 52.1756 63.961 52.1199L63.961 52.1199Z" fill="#FF7300"/>
<path d="M66.4153 50.9922V51.2715H64.9939V50.9922H66.4153Z" fill="#FF7300"/>
<path d="M67.3486 50.2008V51.0458H68.2533V51.3178H67.3486V52.1884H68.3602V52.4604H67.0244V49.9287H68.3602V50.2008H67.3486Z" fill="#FF7300"/>
<path d="M69.8704 52.4604L69.4073 51.7205L68.962 52.4604H68.6237L69.2542 51.4738L68.6237 50.4727H68.9906L69.4537 51.209L69.8954 50.4727H70.2337L69.6068 51.4557L70.2373 52.4604H69.8705L69.8704 52.4604Z" fill="#FF7300"/>
<path d="M71.1687 50.5546C71.2957 50.4785 71.4436 50.4404 71.6122 50.4404C71.7856 50.4404 71.9429 50.4828 72.0842 50.5673C72.2254 50.6522 72.3365 50.7712 72.4172 50.9247C72.4979 51.0784 72.5384 51.2566 72.5384 51.4597C72.5384 51.6606 72.4979 51.8395 72.4172 51.9966C72.3365 52.1538 72.2254 52.2759 72.0842 52.3629C71.9429 52.4498 71.7856 52.4935 71.6122 52.4935C71.4459 52.4935 71.2993 52.4554 71.1723 52.3793C71.0453 52.3031 70.9485 52.2081 70.882 52.0945V53.4039H70.5579V50.4731H70.882V50.8394C70.946 50.7258 71.0416 50.6308 71.1687 50.5546ZM72.118 51.068C72.0587 50.9567 71.9785 50.8722 71.8775 50.814C71.7766 50.7562 71.6657 50.7271 71.5446 50.7271C71.4257 50.7271 71.316 50.7568 71.2151 50.8159C71.1141 50.8752 71.0334 50.9611 70.9728 51.0734C70.9123 51.1858 70.8821 51.3159 70.8821 51.4634C70.8821 51.6132 70.9123 51.7444 70.9728 51.8568C71.0334 51.9693 71.1141 52.0552 71.2151 52.1143C71.316 52.1737 71.4257 52.2033 71.5446 52.2033C71.6657 52.2033 71.7766 52.1737 71.8775 52.1143C71.9785 52.0552 72.0587 51.9693 72.118 51.8568C72.1774 51.7444 72.207 51.612 72.207 51.4597C72.207 51.3099 72.1774 51.1793 72.118 51.068V51.068Z" fill="#FF7300"/>
<path d="M74.7362 51.5903H73.1761C73.1879 51.7862 73.2537 51.9391 73.3736 52.0492C73.4936 52.1592 73.639 52.2141 73.81 52.2141C73.9501 52.2141 74.0671 52.1809 74.1609 52.1143C74.2547 52.0479 74.3207 51.9591 74.3587 51.8478H74.7078C74.6555 52.0388 74.5509 52.1942 74.3942 52.314C74.2375 52.4336 74.0428 52.4935 73.81 52.4935C73.6249 52.4935 73.4592 52.4511 73.3132 52.3666C73.1671 52.2819 73.0525 52.1617 72.9694 52.0057C72.8862 51.8497 72.8447 51.6689 72.8447 51.4634C72.8447 51.2579 72.885 51.0777 72.9659 50.923C73.0466 50.7682 73.16 50.649 73.306 50.5656C73.4521 50.4822 73.62 50.4404 73.81 50.4404C73.9952 50.4404 74.1591 50.4816 74.3017 50.5638C74.4441 50.646 74.554 50.7591 74.6312 50.9028C74.7082 51.0468 74.7468 51.2094 74.7468 51.3908C74.7468 51.4538 74.7433 51.5202 74.7362 51.5903V51.5903ZM74.3301 50.9973C74.2755 50.9066 74.2014 50.8376 74.1074 50.7905C74.0136 50.7434 73.9098 50.7198 73.7958 50.7198C73.632 50.7198 73.4923 50.773 73.3773 50.8793C73.2621 50.9858 73.1961 51.1333 73.1795 51.3219H74.412C74.412 51.1963 74.3848 51.0879 74.33 50.9973H74.3301Z" fill="#FF7300"/>
<path d="M75.7425 50.5308C75.8481 50.4679 75.977 50.4365 76.129 50.4365V50.7775H76.0434C75.6802 50.7775 75.4985 50.9782 75.4985 51.3795V52.4605H75.1744V50.4727H75.4985V50.7956C75.5555 50.682 75.6369 50.5936 75.7425 50.5308Z" fill="#FF7300"/>
<path d="M76.5136 50.0848C76.4709 50.0411 76.4495 49.9879 76.4495 49.9251C76.4495 49.8622 76.4709 49.809 76.5136 49.7655C76.5563 49.722 76.6086 49.7002 76.6703 49.7002C76.7297 49.7002 76.7802 49.722 76.8217 49.7655C76.8633 49.809 76.8842 49.8622 76.8842 49.9251C76.8842 49.9879 76.8633 50.0411 76.8217 50.0848C76.7802 50.1281 76.7298 50.1499 76.6703 50.1499C76.6086 50.1499 76.5563 50.1281 76.5136 50.0848ZM76.8272 50.4727V52.4605H76.503V50.4727H76.8272Z" fill="#FF7300"/>
<path d="M79.1495 51.5903H77.5894C77.6012 51.7862 77.667 51.9391 77.787 52.0492C77.9069 52.1592 78.0523 52.2141 78.2233 52.2141C78.3634 52.2141 78.4805 52.1809 78.5742 52.1143C78.668 52.0479 78.734 51.9591 78.772 51.8478H79.1211C79.0688 52.0388 78.9642 52.1942 78.8075 52.314C78.6509 52.4336 78.4562 52.4935 78.2233 52.4935C78.0382 52.4935 77.8725 52.4511 77.7265 52.3666C77.5804 52.2819 77.4658 52.1617 77.3827 52.0057C77.2996 51.8497 77.2581 51.6689 77.2581 51.4634C77.2581 51.2579 77.2983 51.0777 77.3792 50.923C77.4599 50.7682 77.5733 50.649 77.7193 50.5656C77.8654 50.4822 78.0333 50.4404 78.2233 50.4404C78.4086 50.4404 78.5724 50.4816 78.715 50.5638C78.8574 50.646 78.9673 50.7591 79.0445 50.9028C79.1215 51.0468 79.1601 51.2094 79.1601 51.3908C79.1601 51.4538 79.1566 51.5202 79.1495 51.5903V51.5903ZM78.7434 50.9973C78.6888 50.9066 78.6147 50.8376 78.5207 50.7905C78.427 50.7434 78.3232 50.7198 78.2092 50.7198C78.0453 50.7198 77.9056 50.773 77.7906 50.8793C77.6754 50.9858 77.6094 51.1333 77.5929 51.3219H78.8253C78.8253 51.1963 78.7981 51.0879 78.7434 50.9973H78.7434Z" fill="#FF7300"/>
<path d="M81.1157 50.656C81.263 50.8022 81.3367 51.0133 81.3367 51.2888V52.4605H81.016V51.3362C81.016 51.1377 80.9674 50.9861 80.8699 50.8809C80.7725 50.7756 80.6395 50.723 80.471 50.723C80.3 50.723 80.1641 50.7775 80.0632 50.8863C79.9622 50.9951 79.9118 51.1535 79.9118 51.3615V52.4605H79.5877V50.4728H79.9118V50.7558C79.9758 50.6541 80.0632 50.5757 80.1735 50.5199C80.284 50.4642 80.4056 50.4365 80.5388 50.4365C80.7762 50.4365 80.9684 50.5097 81.1157 50.656L81.1157 50.656Z" fill="#FF7300"/>
<path d="M81.8674 50.9247C81.9481 50.7712 82.0603 50.6522 82.2041 50.5673C82.3477 50.4828 82.5121 50.4404 82.6974 50.4404C82.9372 50.4404 83.1348 50.4999 83.2904 50.6181C83.4459 50.7366 83.5486 50.9011 83.5985 51.1115H83.2494C83.2161 50.9906 83.1515 50.8951 83.0553 50.8249C82.9591 50.7549 82.8398 50.7198 82.6974 50.7198C82.5121 50.7198 82.3625 50.7845 82.2486 50.9138C82.1346 51.0432 82.0776 51.2263 82.0776 51.4634C82.0776 51.7027 82.1346 51.8877 82.2486 52.0184C82.3625 52.149 82.5121 52.2142 82.6974 52.2142C82.8398 52.2142 82.9585 52.1803 83.0535 52.1126C83.1485 52.045 83.2138 51.9481 83.2494 51.8225H83.5985C83.5462 52.0255 83.4418 52.1883 83.2851 52.3103C83.1284 52.4325 82.9325 52.4935 82.6974 52.4935C82.5121 52.4935 82.3477 52.4511 82.204 52.3666C82.0603 52.2819 81.9481 52.1623 81.8674 52.0075C81.7865 51.8528 81.7463 51.6714 81.7463 51.4634C81.7463 51.2579 81.7865 51.0784 81.8674 50.9247H81.8674Z" fill="#FF7300"/>
<path d="M85.7998 51.5903H84.2397C84.2516 51.7862 84.3174 51.9391 84.4373 52.0492C84.5572 52.1592 84.7027 52.2141 84.8736 52.2141C85.0138 52.2141 85.1308 52.1809 85.2246 52.1143C85.3183 52.0479 85.3843 51.9591 85.4223 51.8478H85.7714C85.7191 52.0388 85.6146 52.1942 85.4579 52.314C85.3012 52.4336 85.1065 52.4935 84.8737 52.4935C84.6885 52.4935 84.5229 52.4511 84.3768 52.3666C84.2308 52.2819 84.1162 52.1617 84.033 52.0057C83.9499 51.8497 83.9084 51.6689 83.9084 51.4634C83.9084 51.2579 83.9487 51.0777 84.0295 50.923C84.1102 50.7682 84.2236 50.649 84.3697 50.5656C84.5157 50.4822 84.6837 50.4404 84.8736 50.4404C85.0589 50.4404 85.2227 50.4816 85.3653 50.5638C85.5077 50.646 85.6176 50.7591 85.6948 50.9028C85.7719 51.0468 85.8105 51.2094 85.8105 51.3908C85.8105 51.4538 85.807 51.5202 85.7998 51.5903V51.5903ZM85.3937 50.9973C85.3392 50.9066 85.265 50.8376 85.1711 50.7905C85.0773 50.7434 84.9735 50.7198 84.8595 50.7198C84.6957 50.7198 84.556 50.773 84.4409 50.8793C84.3257 50.9858 84.2597 51.1333 84.2432 51.3219H85.4756C85.4756 51.1963 85.4484 51.0879 85.3937 50.9973H85.3937Z" fill="#FF7300"/>
<path d="M86.5265 52.4155C86.4078 52.3635 86.314 52.291 86.2451 52.1979C86.1761 52.1047 86.1381 51.9978 86.1312 51.8769H86.466C86.4754 51.976 86.5212 52.057 86.6031 52.1199C86.685 52.1827 86.7925 52.2141 86.9254 52.2141C87.0489 52.2141 87.1463 52.1864 87.2176 52.1307C87.2888 52.0751 87.3244 52.005 87.3244 51.9204C87.3244 51.8333 87.2864 51.7686 87.2104 51.7263C87.1344 51.6841 87.0168 51.6423 86.8578 51.6011C86.713 51.5624 86.5947 51.5231 86.5034 51.4832C86.4119 51.4434 86.3335 51.3842 86.2683 51.3055C86.2029 51.2269 86.1703 51.1236 86.1703 50.9954C86.1703 50.8939 86.2 50.8007 86.2593 50.7162C86.3187 50.6316 86.4031 50.5644 86.5122 50.5147C86.6215 50.4652 86.7461 50.4404 86.8862 50.4404C87.1024 50.4404 87.2769 50.4962 87.41 50.6073C87.543 50.7187 87.6141 50.871 87.6237 51.0644H87.2995C87.2923 50.9604 87.2515 50.877 87.1767 50.814C87.1017 50.7512 87.0014 50.7198 86.8756 50.7198C86.7592 50.7198 86.6666 50.7452 86.5978 50.7959C86.5289 50.8468 86.4944 50.9132 86.4944 50.9954C86.4944 51.0607 86.5152 51.1146 86.5567 51.1568C86.5984 51.1991 86.6505 51.2331 86.7136 51.2585C86.7763 51.2839 86.8637 51.3124 86.9753 51.3436C87.1154 51.3823 87.2294 51.4204 87.3172 51.4578C87.4051 51.4954 87.4805 51.5516 87.5435 51.6265C87.6063 51.7016 87.639 51.7996 87.6414 51.9204C87.6414 52.0292 87.6118 52.127 87.5524 52.2142C87.4929 52.3013 87.4093 52.3697 87.3013 52.4192C87.1932 52.4687 87.069 52.4935 86.9291 52.4935C86.7794 52.4935 86.6452 52.4675 86.5265 52.4155V52.4155Z" fill="#FF7300"/>
</g>
<defs>
<clipPath id="clip0_139_577">
<rect width="93" height="30.4038" fill="white" transform="translate(0 23)"/>
</clipPath>
</defs>
</svg>
