<svg width="156" height="12" viewBox="0 0 156 12" fill="none" xmlns="http://www.w3.org/2000/svg">
<path d="M1.07706 9.108C0.773063 9.108 0.541063 9.024 0.381063 8.856C0.221063 8.688 0.141063 8.452 0.141063 8.148V1.488C0.141063 1.176 0.221063 0.94 0.381063 0.779999C0.549063 0.619999 0.785063 0.539999 1.08906 0.539999H4.00506C4.94906 0.539999 5.67706 0.779999 6.18906 1.26C6.70106 1.732 6.95706 2.392 6.95706 3.24C6.95706 4.088 6.70106 4.752 6.18906 5.232C5.67706 5.712 4.94906 5.952 4.00506 5.952H2.00106V8.148C2.00106 8.452 1.92106 8.688 1.76106 8.856C1.60906 9.024 1.38106 9.108 1.07706 9.108ZM2.00106 4.512H3.69306C4.17306 4.512 4.53706 4.404 4.78506 4.188C5.04106 3.972 5.16906 3.656 5.16906 3.24C5.16906 2.824 5.04106 2.512 4.78506 2.304C4.53706 2.096 4.17306 1.992 3.69306 1.992H2.00106V4.512ZM10.4694 9.132C9.83741 9.132 9.28541 9.008 8.81341 8.76C8.34941 8.512 7.98941 8.156 7.73341 7.692C7.47741 7.228 7.34941 6.68 7.34941 6.048C7.34941 5.576 7.42141 5.152 7.56541 4.776C7.70941 4.4 7.91741 4.08 8.18941 3.816C8.46941 3.544 8.80141 3.34 9.18541 3.204C9.56941 3.06 9.99741 2.988 10.4694 2.988C11.1014 2.988 11.6494 3.112 12.1134 3.36C12.5854 3.608 12.9494 3.96 13.2054 4.416C13.4694 4.872 13.6014 5.416 13.6014 6.048C13.6014 6.528 13.5254 6.956 13.3734 7.332C13.2294 7.708 13.0214 8.032 12.7494 8.304C12.4774 8.576 12.1454 8.784 11.7534 8.928C11.3694 9.064 10.9414 9.132 10.4694 9.132ZM10.4694 7.776C10.7334 7.776 10.9614 7.712 11.1534 7.584C11.3454 7.456 11.4974 7.268 11.6094 7.02C11.7214 6.764 11.7774 6.44 11.7774 6.048C11.7774 5.464 11.6574 5.036 11.4174 4.764C11.1774 4.484 10.8614 4.344 10.4694 4.344C10.2134 4.344 9.98541 4.404 9.78541 4.524C9.59341 4.644 9.44141 4.832 9.32941 5.088C9.22541 5.336 9.17341 5.656 9.17341 6.048C9.17341 6.632 9.29341 7.068 9.53341 7.356C9.77341 7.636 10.0854 7.776 10.4694 7.776ZM16.9872 9.108C16.7472 9.108 16.5432 9.052 16.3752 8.94C16.2072 8.82 16.0712 8.632 15.9672 8.376L14.2752 4.188C14.1872 3.964 14.1592 3.768 14.1912 3.6C14.2232 3.424 14.3072 3.284 14.4432 3.18C14.5872 3.068 14.7832 3.012 15.0312 3.012C15.2392 3.012 15.4112 3.064 15.5472 3.168C15.6832 3.264 15.7992 3.452 15.8952 3.732L17.2152 7.248H16.9392L18.3072 3.576C18.3712 3.384 18.4632 3.244 18.5832 3.156C18.7112 3.06 18.8752 3.012 19.0752 3.012C19.2752 3.012 19.4352 3.06 19.5552 3.156C19.6832 3.252 19.7832 3.392 19.8552 3.576L21.1992 7.248H20.9712L22.2792 3.684C22.3752 3.428 22.4992 3.252 22.6512 3.156C22.8032 3.06 22.9672 3.012 23.1432 3.012C23.3672 3.012 23.5392 3.068 23.6592 3.18C23.7872 3.292 23.8592 3.436 23.8752 3.612C23.8992 3.788 23.8672 3.98 23.7792 4.188L22.0992 8.376C22.0032 8.624 21.8672 8.808 21.6912 8.928C21.5232 9.048 21.3192 9.108 21.0792 9.108C20.8472 9.108 20.6432 9.048 20.4672 8.928C20.2992 8.808 20.1632 8.624 20.0592 8.376L18.6192 4.632H19.3992L17.9952 8.364C17.8992 8.612 17.7672 8.8 17.5992 8.928C17.4312 9.048 17.2272 9.108 16.9872 9.108ZM27.8185 9.132C27.1225 9.132 26.5225 9.008 26.0185 8.76C25.5225 8.504 25.1385 8.148 24.8665 7.692C24.6025 7.228 24.4705 6.684 24.4705 6.06C24.4705 5.452 24.5985 4.92 24.8545 4.464C25.1105 4 25.4665 3.64 25.9225 3.384C26.3865 3.12 26.9105 2.988 27.4945 2.988C27.9185 2.988 28.3025 3.06 28.6465 3.204C28.9905 3.34 29.2865 3.54 29.5345 3.804C29.7825 4.06 29.9705 4.376 30.0985 4.752C30.2265 5.12 30.2905 5.532 30.2905 5.988C30.2905 6.14 30.2425 6.256 30.1465 6.336C30.0505 6.408 29.9105 6.444 29.7265 6.444H25.9585V5.508H28.9825L28.7905 5.676C28.7905 5.348 28.7425 5.076 28.6465 4.86C28.5505 4.636 28.4105 4.468 28.2265 4.356C28.0505 4.244 27.8305 4.188 27.5665 4.188C27.2705 4.188 27.0185 4.256 26.8105 4.392C26.6025 4.528 26.4425 4.724 26.3305 4.98C26.2185 5.236 26.1625 5.544 26.1625 5.904V6C26.1625 6.608 26.3025 7.056 26.5825 7.344C26.8705 7.632 27.2945 7.776 27.8545 7.776C28.0465 7.776 28.2665 7.752 28.5145 7.704C28.7625 7.656 28.9945 7.58 29.2105 7.476C29.3945 7.388 29.5585 7.36 29.7025 7.392C29.8465 7.416 29.9585 7.48 30.0385 7.584C30.1185 7.688 30.1625 7.808 30.1705 7.944C30.1865 8.08 30.1585 8.216 30.0865 8.352C30.0145 8.48 29.8945 8.588 29.7265 8.676C29.4545 8.828 29.1465 8.94 28.8025 9.012C28.4665 9.092 28.1385 9.132 27.8185 9.132ZM32.2804 9.108C31.9764 9.108 31.7444 9.028 31.5844 8.868C31.4244 8.708 31.3444 8.48 31.3444 8.184V3.924C31.3444 3.628 31.4204 3.404 31.5724 3.252C31.7324 3.092 31.9524 3.012 32.2324 3.012C32.5204 3.012 32.7404 3.092 32.8924 3.252C33.0444 3.404 33.1204 3.628 33.1204 3.924V4.548H33.0004C33.0964 4.068 33.3084 3.696 33.6364 3.432C33.9644 3.168 34.3884 3.02 34.9084 2.988C35.1084 2.972 35.2604 3.024 35.3644 3.144C35.4764 3.256 35.5364 3.444 35.5444 3.708C35.5604 3.956 35.5084 4.152 35.3884 4.296C35.2764 4.44 35.0844 4.528 34.8124 4.56L34.5364 4.584C34.0804 4.624 33.7404 4.756 33.5164 4.98C33.3004 5.204 33.1924 5.528 33.1924 5.952V8.184C33.1924 8.48 33.1124 8.708 32.9524 8.868C32.8004 9.028 32.5764 9.108 32.2804 9.108ZM39.2443 9.132C38.5483 9.132 37.9483 9.008 37.4443 8.76C36.9483 8.504 36.5643 8.148 36.2923 7.692C36.0283 7.228 35.8963 6.684 35.8963 6.06C35.8963 5.452 36.0243 4.92 36.2803 4.464C36.5363 4 36.8923 3.64 37.3483 3.384C37.8123 3.12 38.3363 2.988 38.9203 2.988C39.3443 2.988 39.7283 3.06 40.0723 3.204C40.4163 3.34 40.7123 3.54 40.9603 3.804C41.2083 4.06 41.3963 4.376 41.5243 4.752C41.6523 5.12 41.7163 5.532 41.7163 5.988C41.7163 6.14 41.6683 6.256 41.5723 6.336C41.4763 6.408 41.3363 6.444 41.1523 6.444H37.3843V5.508H40.4083L40.2163 5.676C40.2163 5.348 40.1683 5.076 40.0723 4.86C39.9763 4.636 39.8363 4.468 39.6523 4.356C39.4763 4.244 39.2563 4.188 38.9923 4.188C38.6963 4.188 38.4443 4.256 38.2363 4.392C38.0283 4.528 37.8683 4.724 37.7563 4.98C37.6443 5.236 37.5883 5.544 37.5883 5.904V6C37.5883 6.608 37.7283 7.056 38.0083 7.344C38.2963 7.632 38.7203 7.776 39.2803 7.776C39.4723 7.776 39.6923 7.752 39.9403 7.704C40.1883 7.656 40.4203 7.58 40.6363 7.476C40.8203 7.388 40.9843 7.36 41.1283 7.392C41.2723 7.416 41.3843 7.48 41.4643 7.584C41.5443 7.688 41.5883 7.808 41.5963 7.944C41.6123 8.08 41.5843 8.216 41.5123 8.352C41.4403 8.48 41.3203 8.588 41.1523 8.676C40.8803 8.828 40.5723 8.94 40.2283 9.012C39.8923 9.092 39.5643 9.132 39.2443 9.132ZM45.0622 9.132C44.5502 9.132 44.0982 9.008 43.7062 8.76C43.3222 8.512 43.0222 8.156 42.8062 7.692C42.5902 7.228 42.4822 6.68 42.4822 6.048C42.4822 5.416 42.5902 4.872 42.8062 4.416C43.0222 3.96 43.3222 3.608 43.7062 3.36C44.0982 3.112 44.5502 2.988 45.0622 2.988C45.5262 2.988 45.9342 3.1 46.2862 3.324C46.6462 3.548 46.8902 3.84 47.0182 4.2H46.8862V1.356C46.8862 1.052 46.9622 0.824 47.1142 0.672C47.2662 0.512 47.4902 0.431999 47.7862 0.431999C48.0742 0.431999 48.2982 0.512 48.4582 0.672C48.6182 0.824 48.6982 1.052 48.6982 1.356V8.184C48.6982 8.48 48.6182 8.708 48.4582 8.868C48.3062 9.028 48.0862 9.108 47.7982 9.108C47.5102 9.108 47.2862 9.028 47.1262 8.868C46.9742 8.708 46.8982 8.48 46.8982 8.184V7.368L47.0302 7.836C46.9182 8.228 46.6782 8.544 46.3102 8.784C45.9502 9.016 45.5342 9.132 45.0622 9.132ZM45.6022 7.776C45.8662 7.776 46.0942 7.712 46.2862 7.584C46.4782 7.456 46.6302 7.268 46.7422 7.02C46.8542 6.764 46.9102 6.44 46.9102 6.048C46.9102 5.464 46.7902 5.036 46.5502 4.764C46.3102 4.484 45.9942 4.344 45.6022 4.344C45.3462 4.344 45.1182 4.404 44.9182 4.524C44.7262 4.644 44.5742 4.832 44.4622 5.088C44.3582 5.336 44.3062 5.656 44.3062 6.048C44.3062 6.632 44.4262 7.068 44.6662 7.356C44.9062 7.636 45.2182 7.776 45.6022 7.776ZM57.082 9.132C56.61 9.132 56.19 9.016 55.822 8.784C55.462 8.544 55.222 8.228 55.102 7.836L55.234 7.44V8.184C55.234 8.48 55.158 8.708 55.006 8.868C54.854 9.028 54.634 9.108 54.346 9.108C54.058 9.108 53.834 9.028 53.674 8.868C53.522 8.708 53.446 8.48 53.446 8.184V1.356C53.446 1.052 53.522 0.824 53.674 0.672C53.834 0.512 54.062 0.431999 54.358 0.431999C54.646 0.431999 54.866 0.512 55.018 0.672C55.178 0.824 55.258 1.052 55.258 1.356V4.2H55.114C55.242 3.84 55.486 3.548 55.846 3.324C56.206 3.1 56.618 2.988 57.082 2.988C57.602 2.988 58.054 3.112 58.438 3.36C58.822 3.608 59.122 3.96 59.338 4.416C59.554 4.872 59.662 5.416 59.662 6.048C59.662 6.68 59.554 7.228 59.338 7.692C59.122 8.156 58.818 8.512 58.426 8.76C58.042 9.008 57.594 9.132 57.082 9.132ZM56.542 7.776C56.798 7.776 57.022 7.712 57.214 7.584C57.414 7.456 57.566 7.268 57.67 7.02C57.782 6.764 57.838 6.44 57.838 6.048C57.838 5.464 57.718 5.036 57.478 4.764C57.238 4.484 56.926 4.344 56.542 4.344C56.286 4.344 56.058 4.404 55.858 4.524C55.666 4.644 55.514 4.832 55.402 5.088C55.29 5.336 55.234 5.656 55.234 6.048C55.234 6.632 55.354 7.068 55.594 7.356C55.834 7.636 56.15 7.776 56.542 7.776ZM62.2376 11.268C62.0296 11.268 61.8576 11.212 61.7216 11.1C61.5856 10.988 61.5056 10.84 61.4816 10.656C61.4576 10.48 61.4896 10.292 61.5776 10.092L62.3816 8.316V9.06L60.2576 4.188C60.1776 3.98 60.1496 3.788 60.1736 3.612C60.2056 3.428 60.2936 3.284 60.4376 3.18C60.5896 3.068 60.7976 3.012 61.0616 3.012C61.2776 3.012 61.4496 3.064 61.5776 3.168C61.7136 3.264 61.8376 3.452 61.9496 3.732L63.3656 7.332H62.9816L64.4456 3.72C64.5576 3.448 64.6816 3.264 64.8176 3.168C64.9616 3.064 65.1536 3.012 65.3936 3.012C65.6016 3.012 65.7656 3.068 65.8856 3.18C66.0136 3.284 66.0896 3.424 66.1136 3.6C66.1456 3.776 66.1136 3.968 66.0176 4.176L63.1976 10.572C63.0776 10.844 62.9416 11.028 62.7896 11.124C62.6456 11.22 62.4616 11.268 62.2376 11.268ZM74.5796 9.132C73.9636 9.132 73.3876 9.02 72.8516 8.796C72.3236 8.572 71.8596 8.264 71.4596 7.872C71.0676 7.472 70.7596 7.008 70.5356 6.48C70.3196 5.952 70.2116 5.38 70.2116 4.764C70.2116 4.148 70.3196 3.576 70.5356 3.048C70.7596 2.52 71.0676 2.06 71.4596 1.668C71.8596 1.268 72.3236 0.96 72.8516 0.744C73.3876 0.52 73.9636 0.408 74.5796 0.408C75.1956 0.408 75.7676 0.52 76.2956 0.744C76.8236 0.96 77.2836 1.268 77.6756 1.668C78.0756 2.06 78.3836 2.52 78.5996 3.048C78.8236 3.576 78.9356 4.148 78.9356 4.764C78.9356 5.38 78.8236 5.952 78.5996 6.48C78.3836 7.008 78.0756 7.472 77.6756 7.872C77.2836 8.264 76.8236 8.572 76.2956 8.796C75.7676 9.02 75.1956 9.132 74.5796 9.132ZM74.5796 8.424C75.0996 8.424 75.5796 8.332 76.0196 8.148C76.4596 7.964 76.8396 7.708 77.1596 7.38C77.4876 7.044 77.7396 6.656 77.9156 6.216C78.0996 5.768 78.1916 5.284 78.1916 4.764C78.1916 4.244 78.0996 3.764 77.9156 3.324C77.7396 2.876 77.4876 2.488 77.1596 2.16C76.8396 1.832 76.4596 1.576 76.0196 1.392C75.5796 1.208 75.0996 1.116 74.5796 1.116C74.0596 1.116 73.5796 1.208 73.1396 1.392C72.6996 1.576 72.3156 1.832 71.9876 2.16C71.6596 2.488 71.4036 2.876 71.2196 3.324C71.0436 3.764 70.9556 4.244 70.9556 4.764C70.9556 5.284 71.0436 5.768 71.2196 6.216C71.4036 6.656 71.6596 7.044 71.9876 7.38C72.3156 7.708 72.6996 7.964 73.1396 8.148C73.5796 8.332 74.0596 8.424 74.5796 8.424ZM74.8316 7.356C74.0156 7.356 73.3636 7.124 72.8756 6.66C72.3956 6.188 72.1556 5.552 72.1556 4.752C72.1556 3.952 72.3956 3.324 72.8756 2.868C73.3636 2.412 74.0156 2.184 74.8316 2.184C75.0396 2.184 75.2556 2.208 75.4796 2.256C75.7116 2.304 75.9396 2.384 76.1636 2.496C76.2996 2.552 76.3956 2.636 76.4516 2.748C76.5076 2.86 76.5316 2.98 76.5236 3.108C76.5236 3.236 76.4916 3.348 76.4276 3.444C76.3716 3.532 76.2876 3.596 76.1756 3.636C76.0716 3.668 75.9516 3.648 75.8156 3.576C75.6716 3.504 75.5276 3.452 75.3836 3.42C75.2476 3.38 75.1076 3.36 74.9636 3.36C74.5636 3.36 74.2476 3.484 74.0156 3.732C73.7916 3.972 73.6796 4.316 73.6796 4.764C73.6796 5.204 73.7916 5.552 74.0156 5.808C74.2476 6.056 74.5636 6.18 74.9636 6.18C75.1076 6.18 75.2476 6.164 75.3836 6.132C75.5196 6.092 75.6636 6.04 75.8156 5.976C75.9916 5.896 76.1396 5.892 76.2596 5.964C76.3796 6.028 76.4636 6.128 76.5116 6.264C76.5676 6.4 76.5716 6.54 76.5236 6.684C76.4836 6.82 76.3836 6.932 76.2236 7.02C76.0076 7.132 75.7756 7.216 75.5276 7.272C75.2876 7.328 75.0556 7.356 74.8316 7.356ZM87.8603 9.132C86.9083 9.132 86.1003 8.952 85.4363 8.592C84.7803 8.232 84.2803 7.728 83.9363 7.08C83.5923 6.432 83.4203 5.672 83.4203 4.8C83.4203 4.128 83.5203 3.524 83.7203 2.988C83.9283 2.444 84.2243 1.984 84.6083 1.608C85.0003 1.224 85.4723 0.927999 86.0243 0.719999C86.5843 0.512 87.2163 0.408 87.9203 0.408C88.3523 0.408 88.7843 0.456 89.2163 0.551999C89.6483 0.648 90.0643 0.808 90.4643 1.032C90.6323 1.128 90.7443 1.252 90.8003 1.404C90.8643 1.548 90.8803 1.704 90.8483 1.872C90.8243 2.032 90.7603 2.176 90.6563 2.304C90.5603 2.424 90.4323 2.504 90.2723 2.544C90.1203 2.576 89.9443 2.544 89.7443 2.448C89.4803 2.304 89.2003 2.2 88.9043 2.136C88.6083 2.064 88.2843 2.028 87.9323 2.028C87.3643 2.028 86.8883 2.136 86.5043 2.352C86.1203 2.56 85.8323 2.872 85.6403 3.288C85.4563 3.696 85.3643 4.2 85.3643 4.8C85.3643 5.704 85.5803 6.388 86.0123 6.852C86.4523 7.316 87.1003 7.548 87.9563 7.548C88.2443 7.548 88.5403 7.52 88.8443 7.464C89.1483 7.408 89.4483 7.328 89.7443 7.224L89.3963 7.98V5.676H88.3163C88.0763 5.676 87.8923 5.616 87.7643 5.496C87.6363 5.376 87.5723 5.212 87.5723 5.004C87.5723 4.788 87.6363 4.624 87.7643 4.512C87.8923 4.392 88.0763 4.332 88.3163 4.332H90.2003C90.4403 4.332 90.6203 4.396 90.7403 4.524C90.8683 4.652 90.9323 4.836 90.9323 5.076V7.86C90.9323 8.068 90.8923 8.244 90.8123 8.388C90.7323 8.532 90.5963 8.636 90.4043 8.7C90.0443 8.828 89.6403 8.932 89.1923 9.012C88.7443 9.092 88.3003 9.132 87.8603 9.132ZM93.5146 9.108C93.2106 9.108 92.9786 9.024 92.8186 8.856C92.6586 8.688 92.5786 8.452 92.5786 8.148V1.392C92.5786 1.088 92.6586 0.852 92.8186 0.684C92.9786 0.516 93.2106 0.431999 93.5146 0.431999C93.8106 0.431999 94.0386 0.516 94.1986 0.684C94.3586 0.852 94.4386 1.088 94.4386 1.392V8.148C94.4386 8.452 94.3586 8.688 94.1986 8.856C94.0466 9.024 93.8186 9.108 93.5146 9.108ZM97.0051 9.108C96.7331 9.108 96.5251 9.032 96.3811 8.88C96.2371 8.728 96.1651 8.516 96.1651 8.244V1.296C96.1651 1.024 96.2411 0.811999 96.3931 0.659999C96.5531 0.507999 96.7691 0.431999 97.0411 0.431999C97.2811 0.431999 97.4691 0.48 97.6051 0.576C97.7491 0.664 97.8811 0.819999 98.0011 1.044L100.773 6.108H100.365L103.137 1.044C103.257 0.819999 103.385 0.664 103.521 0.576C103.665 0.48 103.853 0.431999 104.085 0.431999C104.357 0.431999 104.565 0.507999 104.709 0.659999C104.861 0.811999 104.937 1.024 104.937 1.296V8.244C104.937 8.516 104.865 8.728 104.721 8.88C104.577 9.032 104.369 9.108 104.097 9.108C103.825 9.108 103.613 9.032 103.461 8.88C103.317 8.728 103.245 8.516 103.245 8.244V3.384H103.509L101.277 7.38C101.181 7.532 101.077 7.648 100.965 7.728C100.861 7.8 100.721 7.836 100.545 7.836C100.369 7.836 100.225 7.796 100.113 7.716C100.001 7.636 99.9011 7.524 99.8131 7.38L97.5571 3.372H97.8451V8.244C97.8451 8.516 97.7731 8.728 97.6291 8.88C97.4931 9.032 97.2851 9.108 97.0051 9.108ZM107.517 9.108C107.245 9.108 107.037 9.032 106.893 8.88C106.749 8.728 106.677 8.516 106.677 8.244V1.296C106.677 1.024 106.753 0.811999 106.905 0.659999C107.065 0.507999 107.281 0.431999 107.553 0.431999C107.793 0.431999 107.981 0.48 108.117 0.576C108.261 0.664 108.393 0.819999 108.513 1.044L111.285 6.108H110.877L113.649 1.044C113.769 0.819999 113.897 0.664 114.033 0.576C114.177 0.48 114.365 0.431999 114.597 0.431999C114.869 0.431999 115.077 0.507999 115.221 0.659999C115.373 0.811999 115.449 1.024 115.449 1.296V8.244C115.449 8.516 115.377 8.728 115.233 8.88C115.089 9.032 114.881 9.108 114.609 9.108C114.337 9.108 114.125 9.032 113.973 8.88C113.829 8.728 113.757 8.516 113.757 8.244V3.384H114.021L111.789 7.38C111.693 7.532 111.589 7.648 111.477 7.728C111.373 7.8 111.233 7.836 111.057 7.836C110.881 7.836 110.737 7.796 110.625 7.716C110.513 7.636 110.413 7.524 110.325 7.38L108.069 3.372H108.357V8.244C108.357 8.516 108.285 8.728 108.141 8.88C108.005 9.032 107.797 9.108 107.517 9.108ZM118.137 9C117.825 9 117.585 8.916 117.417 8.748C117.249 8.58 117.165 8.34 117.165 8.028V1.512C117.165 1.2 117.249 0.96 117.417 0.792C117.585 0.624 117.825 0.539999 118.137 0.539999H122.325C122.565 0.539999 122.745 0.604 122.865 0.732C122.993 0.852 123.057 1.028 123.057 1.26C123.057 1.5 122.993 1.684 122.865 1.812C122.745 1.932 122.565 1.992 122.325 1.992H118.941V3.972H122.049C122.297 3.972 122.481 4.036 122.601 4.164C122.729 4.284 122.793 4.464 122.793 4.704C122.793 4.944 122.729 5.128 122.601 5.256C122.481 5.376 122.297 5.436 122.049 5.436H118.941V7.548H122.325C122.565 7.548 122.745 7.612 122.865 7.74C122.993 7.86 123.057 8.036 123.057 8.268C123.057 8.508 122.993 8.692 122.865 8.82C122.745 8.94 122.565 9 122.325 9H118.137ZM128.586 9C128.29 9 128.07 8.932 127.926 8.796C127.79 8.652 127.722 8.444 127.722 8.172C127.722 7.996 127.766 7.832 127.854 7.68C127.942 7.528 128.062 7.372 128.214 7.212L130.47 4.836C130.806 4.476 131.046 4.156 131.19 3.876C131.342 3.596 131.418 3.316 131.418 3.036C131.418 2.684 131.302 2.416 131.07 2.232C130.846 2.048 130.518 1.956 130.086 1.956C129.854 1.956 129.614 1.992 129.366 2.064C129.126 2.128 128.874 2.236 128.61 2.388C128.434 2.484 128.27 2.52 128.118 2.496C127.974 2.464 127.85 2.396 127.746 2.292C127.642 2.18 127.574 2.048 127.542 1.896C127.51 1.744 127.526 1.592 127.59 1.44C127.654 1.288 127.774 1.16 127.95 1.056C128.302 0.84 128.686 0.68 129.102 0.576C129.518 0.464 129.93 0.408 130.338 0.408C130.97 0.408 131.502 0.504 131.934 0.696C132.366 0.88 132.694 1.152 132.918 1.512C133.142 1.872 133.254 2.312 133.254 2.832C133.254 3.168 133.202 3.496 133.098 3.816C132.994 4.136 132.83 4.46 132.606 4.788C132.39 5.108 132.102 5.452 131.742 5.82L129.642 7.956V7.476H132.894C133.15 7.476 133.342 7.54 133.47 7.668C133.606 7.796 133.674 7.984 133.674 8.232C133.674 8.48 133.606 8.672 133.47 8.808C133.342 8.936 133.15 9 132.894 9H128.586ZM137.725 9.132C136.701 9.132 135.917 8.752 135.373 7.992C134.837 7.224 134.569 6.14 134.569 4.74C134.569 3.804 134.689 3.016 134.929 2.376C135.177 1.728 135.533 1.24 135.997 0.912C136.469 0.576 137.045 0.408 137.725 0.408C138.757 0.408 139.541 0.78 140.077 1.524C140.613 2.26 140.881 3.332 140.881 4.74C140.881 5.676 140.757 6.472 140.509 7.128C140.269 7.776 139.917 8.272 139.453 8.616C138.989 8.96 138.413 9.132 137.725 9.132ZM137.725 7.62C138.189 7.62 138.533 7.392 138.757 6.936C138.981 6.472 139.093 5.74 139.093 4.74C139.093 3.74 138.981 3.02 138.757 2.58C138.533 2.14 138.189 1.92 137.725 1.92C137.261 1.92 136.917 2.14 136.693 2.58C136.469 3.02 136.357 3.74 136.357 4.74C136.357 5.74 136.469 6.472 136.693 6.936C136.917 7.392 137.261 7.62 137.725 7.62ZM142.976 9C142.68 9 142.46 8.932 142.316 8.796C142.18 8.652 142.112 8.444 142.112 8.172C142.112 7.996 142.156 7.832 142.244 7.68C142.332 7.528 142.452 7.372 142.604 7.212L144.86 4.836C145.196 4.476 145.436 4.156 145.58 3.876C145.732 3.596 145.808 3.316 145.808 3.036C145.808 2.684 145.692 2.416 145.46 2.232C145.236 2.048 144.908 1.956 144.476 1.956C144.244 1.956 144.004 1.992 143.756 2.064C143.516 2.128 143.264 2.236 143 2.388C142.824 2.484 142.66 2.52 142.508 2.496C142.364 2.464 142.24 2.396 142.136 2.292C142.032 2.18 141.964 2.048 141.932 1.896C141.9 1.744 141.916 1.592 141.98 1.44C142.044 1.288 142.164 1.16 142.34 1.056C142.692 0.84 143.076 0.68 143.492 0.576C143.908 0.464 144.32 0.408 144.728 0.408C145.36 0.408 145.892 0.504 146.324 0.696C146.756 0.88 147.084 1.152 147.308 1.512C147.532 1.872 147.644 2.312 147.644 2.832C147.644 3.168 147.592 3.496 147.488 3.816C147.384 4.136 147.22 4.46 146.996 4.788C146.78 5.108 146.492 5.452 146.132 5.82L144.032 7.956V7.476H147.284C147.54 7.476 147.732 7.54 147.86 7.668C147.996 7.796 148.064 7.984 148.064 8.232C148.064 8.48 147.996 8.672 147.86 8.808C147.732 8.936 147.54 9 147.284 9H142.976ZM150.172 9C149.876 9 149.656 8.932 149.512 8.796C149.376 8.652 149.308 8.444 149.308 8.172C149.308 7.996 149.352 7.832 149.44 7.68C149.528 7.528 149.648 7.372 149.8 7.212L152.056 4.836C152.392 4.476 152.632 4.156 152.776 3.876C152.928 3.596 153.004 3.316 153.004 3.036C153.004 2.684 152.888 2.416 152.656 2.232C152.432 2.048 152.104 1.956 151.672 1.956C151.44 1.956 151.2 1.992 150.952 2.064C150.712 2.128 150.46 2.236 150.196 2.388C150.02 2.484 149.856 2.52 149.704 2.496C149.56 2.464 149.436 2.396 149.332 2.292C149.228 2.18 149.16 2.048 149.128 1.896C149.096 1.744 149.112 1.592 149.176 1.44C149.24 1.288 149.36 1.16 149.536 1.056C149.888 0.84 150.272 0.68 150.688 0.576C151.104 0.464 151.516 0.408 151.924 0.408C152.556 0.408 153.088 0.504 153.52 0.696C153.952 0.88 154.28 1.152 154.504 1.512C154.728 1.872 154.84 2.312 154.84 2.832C154.84 3.168 154.788 3.496 154.684 3.816C154.58 4.136 154.416 4.46 154.192 4.788C153.976 5.108 153.688 5.452 153.328 5.82L151.228 7.956V7.476H154.48C154.736 7.476 154.928 7.54 155.056 7.668C155.192 7.796 155.26 7.984 155.26 8.232C155.26 8.48 155.192 8.672 155.056 8.808C154.928 8.936 154.736 9 154.48 9H150.172Z" fill="#FF8A00"/>
</svg>
