<svg width="248" height="66" viewBox="0 0 248 66" fill="none" xmlns="http://www.w3.org/2000/svg">
<g clip-path="url(#clip0_139_630)">
<path d="M7.05234 24.3796H16.2945L14.8836 29.6868C17.4136 25.9374 20.4781 23.6502 24.7575 23.9419L22.1319 33.6776H21.3528C16.2945 33.6776 13.0354 36.4527 11.3818 42.7812L9.24058 50.7159H-0.00171661L7.05234 24.3796Z" fill="#57ADB9"/>
<path d="M31.7594 40.1033C31.9538 42.6839 33.5588 44.4361 36.7708 44.4361C38.6188 44.4361 40.3212 43.8039 42.315 42.3434L46.596 47.4057C43.9201 49.7416 40.4183 51.3479 35.8944 51.3479C28.1117 51.3479 23.3447 46.7719 23.3447 39.6654C23.3447 35.5269 25.0471 31.293 28.063 28.3233C30.7874 25.5482 34.5807 23.7959 39.1533 23.7959C46.8875 23.7959 50.2922 28.9555 50.2922 34.6517C50.2922 36.4526 49.9034 38.3508 49.2718 40.1031L31.7594 40.1033ZM32.4414 35.3813H41.8779C42.0237 34.9437 42.0723 34.4574 42.0723 33.9208C42.0723 32.1199 40.9044 30.6108 38.5219 30.6108C36.9654 30.6108 35.4574 31.1943 34.2895 32.4117C33.5104 33.1914 32.8785 34.1639 32.4414 35.3813Z" fill="#57ADB9"/>
<path d="M52.6247 41.2227H62.207L59.677 50.7152H50.0461L52.6247 41.2227ZM57.1486 24.3789H66.7309L64.1523 33.8714H54.57L57.1486 24.3789Z" fill="#57ADB9"/>
<path d="M63.3245 55.0002L67.5066 49.2068C70.4254 51.0562 73.8786 51.9819 76.7973 51.9819C79.2787 51.9819 80.9325 51.3481 82.2946 49.9865C83.2664 49.0122 83.9484 47.649 84.4343 45.7508L84.6287 45.117C82.2461 47.2599 79.8619 48.3802 76.603 48.3802C71.8848 48.3802 67.2636 45.1656 67.2636 39.2766C67.2636 34.7978 69.0145 30.6107 71.8848 27.7384C74.3177 25.3053 77.528 23.8447 81.0298 23.8447C85.0661 23.8447 87.5475 25.7915 89.0069 28.1273L90.029 24.3796H99.2225L93.6281 45.3131C92.3631 50.0351 91.098 52.6141 88.9584 54.757C86.3312 57.3847 82.6836 58.6021 77.1862 58.6021C72.1279 58.6021 66.7777 57.1901 63.3245 55.0002ZM85.0175 39.9086C86.2825 38.6426 86.9645 37.0849 86.9645 35.3326C86.9645 32.8509 85.2622 31.1455 82.5378 31.1455C80.884 31.1455 79.4733 31.7793 78.4025 32.8995C77.0889 34.1638 76.4086 35.8189 76.4086 37.6701C76.4086 40.1518 78.111 41.7095 80.6896 41.7095C82.3919 41.7095 83.8999 41.0287 85.0175 39.9086Z" fill="#57ADB9"/>
<path d="M104.132 24.3796H113.374L111.963 29.6868C114.493 25.9374 117.558 23.6502 121.837 23.9419L119.211 33.6776H118.432C113.374 33.6776 110.115 36.4527 108.461 42.7812L106.32 50.7159H97.0779L104.132 24.3796Z" fill="#57ADB9"/>
<path d="M120.473 39.0818C120.473 35.0893 122.175 31.1939 125.045 28.3719C127.818 25.5968 131.612 23.7959 135.99 23.7959C144.016 23.7959 148.88 29.1013 148.88 36.0149C148.88 40.0543 147.177 43.9011 144.356 46.7717C141.585 49.5468 137.741 51.3477 133.411 51.3477C125.337 51.3477 120.473 46.0425 120.473 39.0818ZM137.79 41.9526C139.249 40.5406 140.077 38.3021 140.077 36.3553C140.077 33.337 138.227 31.4874 135.455 31.4874C133.948 31.4874 132.634 32.1196 131.612 33.1424C130.153 34.603 129.327 36.7929 129.327 38.7398C129.327 41.8066 131.175 43.6563 133.899 43.6563C135.407 43.6563 136.768 42.9754 137.79 41.9526Z" fill="#57ADB9"/>
<path d="M151.455 43.4127C151.455 42.0007 151.795 40.297 152.232 38.6907L156.027 24.3789H165.27L161.572 38.1557C161.377 38.8365 161.232 39.7134 161.232 40.297C161.232 42.0493 162.254 43.0722 164.199 43.0722C166.778 43.0722 168.285 41.3199 169.112 38.3016L172.856 24.3789H182.05L174.998 50.7152H165.804L166.581 47.6969C164.83 49.5952 162.205 51.2988 159.092 51.2988C154.325 51.2988 151.455 48.232 151.455 43.4127Z" fill="#57ADB9"/>
<path d="M187.107 24.3795H196.349L195.521 27.3978C197.321 25.4996 199.899 23.7959 203.012 23.7959C207.779 23.7959 210.649 26.8142 210.649 31.6821C210.649 33.094 210.358 34.7489 209.921 36.404L206.077 50.7158H196.883L200.581 36.9391C200.776 36.2096 200.873 35.3327 200.873 34.7491C200.873 32.9968 199.851 31.974 197.905 31.974C195.375 31.974 193.819 33.7748 193.041 36.7445L189.295 50.7158H180.053L187.107 24.3795Z" fill="#57ADB9"/>
<path d="M230.055 47.9405C227.963 49.9359 225.434 51.2992 222.564 51.2992C217.36 51.2992 213.225 47.3084 213.225 40.4921C213.225 35.3325 215.17 30.8537 218.186 27.8354C220.716 25.3052 223.975 23.796 227.379 23.796C231.32 23.796 233.751 25.4997 235.356 27.9814L238.81 15.1787H248.003L238.518 50.7158H229.276L230.055 47.9405ZM231.272 41.8066C232.681 40.346 233.557 38.3506 233.557 36.1121C233.557 33.3369 231.66 31.4387 228.985 31.4387C227.428 31.4387 225.92 32.1681 224.801 33.2882C223.44 34.6514 222.515 36.6955 222.515 39.033C222.515 41.8552 224.363 43.656 227.039 43.656C228.596 43.656 230.104 42.9266 231.272 41.8066Z" fill="#57ADB9"/>
<path d="M10.2625 2.81543H15.6174C18.7423 2.81543 20.6339 4.67004 20.6339 7.34782V7.38645C20.6339 10.4198 18.2748 11.9944 15.3359 11.9944H13.1459V15.9282H10.2623L10.2625 2.81543ZM15.4297 9.42719C16.8706 9.42719 17.7135 8.56522 17.7135 7.44191V7.40499C17.7135 6.11221 16.8155 5.41971 15.3728 5.41971H13.1459V9.42736L15.4297 9.42719Z" fill="#57ADB9"/>
<path d="M25.0188 2.81543H31.0087C32.6759 2.81543 33.9677 3.28333 34.8273 4.14513C35.5578 4.87626 35.9516 5.90582 35.9516 7.1416V7.18023C35.9516 9.29635 34.8089 10.6261 33.1434 11.2449L36.3436 15.9282H32.9741L30.1677 11.7312H27.9024V15.9282H25.0188V2.81543ZM30.8227 9.18405C32.2269 9.18405 33.0311 8.43455 33.0311 7.32944V7.29253C33.0311 6.05503 32.1698 5.41954 30.7658 5.41954H27.9024V9.18405H30.8227Z" fill="#57ADB9"/>
<path d="M40.2241 9.4088V9.37189C40.2241 5.64429 43.163 2.59082 47.2059 2.59082C51.2488 2.59082 54.151 5.60583 54.151 9.33342V9.37206C54.151 13.0997 51.2121 16.1531 47.1692 16.1531C43.1262 16.1531 40.2241 13.1364 40.2241 9.4088ZM51.1368 9.4088V9.37189C51.1368 7.12321 49.4897 5.25022 47.1692 5.25022C44.8487 5.25022 43.2385 7.08629 43.2385 9.33325V9.37189C43.2385 11.6188 44.8856 13.4935 47.2061 13.4935C49.5283 13.4935 51.1368 11.6575 51.1368 9.4088Z" fill="#57ADB9"/>
<path d="M57.0949 14.1491L58.9111 12.1252C59.66 12.9503 60.3906 13.4366 61.3071 13.4366C62.3929 13.4366 63.0665 12.781 63.0665 11.2634V2.81543H66.0237V11.3941C66.0237 12.9501 65.5747 14.1105 64.7889 14.8986C63.9845 15.7036 62.8051 16.1161 61.3825 16.1161C59.3416 16.1161 57.9946 15.2156 57.0949 14.1491Z" fill="#57ADB9"/>
<path d="M71.2129 2.81543H81.0967V5.38091H74.078V8.04203H80.2539V10.6075H74.078V13.3608H81.1906V15.928H71.2129V2.81543Z" fill="#57ADB9"/>
<path d="M85.4262 9.4088V9.37189C85.4262 5.64429 88.2343 2.59082 92.2589 2.59082C94.7302 2.59082 96.2082 3.41416 97.4245 4.61302L95.5898 6.73085C94.5794 5.81188 93.5507 5.25022 92.2405 5.25022C90.0305 5.25022 88.4406 7.08629 88.4406 9.33325V9.37189C88.4406 11.6188 89.9938 13.4935 92.2405 13.4935C93.7368 13.4935 94.6549 12.8933 95.6837 11.9576L97.5183 13.8122C96.1711 15.2542 94.6733 16.1531 92.1465 16.1531C88.2896 16.1531 85.4262 13.1749 85.4262 9.4088Z" fill="#57ADB9"/>
<path d="M105.124 5.475H101.138V2.81543H111.995V5.47483H108.007V15.9282H105.124V5.475Z" fill="#57ADB9"/>
</g>
<defs>
<clipPath id="clip0_139_630">
<rect width="248" height="66" fill="white"/>
</clipPath>
</defs>
</svg>
